<?xml version="1.0" encoding="UTF-8"?>
<svg version="1.1" xmlns="http://www.w3.org/2000/svg" width="1500" height="1000">
<path d="M0 0 C2.375 2.5 2.375 2.5 4 5 C5.1446875 4.7525 5.1446875 4.7525 6.3125 4.5 C9 4 9 4 12 4 C13.1875 5.6875 13.1875 5.6875 14 8 C12.6875 10.4375 12.6875 10.4375 11 13 C9.83789781 15.39351495 9.83789781 15.39351495 10 18 C11.64633943 20.0167658 13.31267723 22.01739574 15 24 C15.22374708 27.57995331 12.68466466 29.99237669 10.40234375 32.60546875 C7.97852253 35.01578679 5.49246289 37 2 37 C1.67 38.65 1.34 40.3 1 42 C2.16015625 42.23783203 2.16015625 42.23783203 3.34375 42.48046875 C4.3853125 42.71378906 5.426875 42.94710937 6.5 43.1875 C8.03140625 43.51814453 8.03140625 43.51814453 9.59375 43.85546875 C12.59481361 44.86385366 14.23087563 45.7792408 16.75 47.5546875 C21.52385318 50.67741214 25.91884956 50.75059727 31.5 50.9375 C41.47171125 51.57878376 53.56065272 52.52908978 61.01953125 60.03125 C62.2948762 62.00123528 63.17553134 63.81028217 64 66 C64.94178572 68.34150395 65.54118544 69.67639166 67.6171875 71.140625 C70.32981922 72.11895119 73.06704083 72.71872085 75.88964844 73.29345703 C83.00552585 74.74678717 88.86751801 76.42960783 94.921875 80.6328125 C97.25436119 82.16734289 99.31085924 83.23045256 102 84 C103.93097685 83.39603267 103.93097685 83.39603267 105.5625 82.125 C108.53976867 80.04847543 109.01313062 80 113 80 C112.67 79.34 112.34 78.68 112 78 C111.92818179 75.28239892 111.90700494 72.59140612 111.9375 69.875 C111.94201172 69.12089844 111.94652344 68.36679688 111.95117188 67.58984375 C111.96296501 65.72652873 111.98090058 63.86325445 112 62 C113.093125 61.608125 114.18625 61.21625 115.3125 60.8125 C119.78416399 59.16044652 124.02270432 57.10894902 128.2890625 54.98828125 C131.38235329 53.86061184 133.7307418 53.75732397 137 54 C137.66 54.33 138.32 54.66 139 55 C140.62473543 55.05094989 142.24981646 55.09124248 143.875 55.125 C148.54903017 55.515625 148.54903017 55.515625 150.4765625 57.5859375 C151.41540348 59.34178513 152.21567282 61.16990324 153 63 C155.6313423 64.31567115 157.8128755 64.1846401 160.75 64.3125 C166.05208716 64.7033792 168.68516115 65.83578485 173 69 C177.90964944 70.73757141 182.77151916 71.03134945 187.9375 71.1875 C194.86714461 71.58886239 200.61673121 73.90203757 206.90795898 76.64916992 C207.64087158 76.96345947 208.37378418 77.27774902 209.12890625 77.6015625 C209.77931885 77.89369629 210.42973145 78.18583008 211.09985352 78.48681641 C214.58626271 79.42841118 217.08692733 77.96227682 220.3125 76.5625 C231.43244043 71.77345002 243.27135101 70.73003104 255 74 C255 74.99 255 75.98 255 77 C256.32 77.33 257.64 77.66 259 78 C259 78.99 259 79.98 259 81 C259.76183594 80.91105469 260.52367187 80.82210937 261.30859375 80.73046875 C264 81 264 81 265.66015625 82.80078125 C270.29589691 91.10379308 273.69339104 99.45405784 275.55859375 108.796875 C275.87100086 110.35614588 276.22123102 111.90805933 276.59765625 113.453125 C276.79230469 114.25234375 276.98695313 115.0515625 277.1875 115.875 C277.45626953 116.95394531 277.45626953 116.95394531 277.73046875 118.0546875 C278 120 278 120 277 123 C276.34 123 275.68 123 275 123 C279.66752534 132.55327263 284.51735709 141.88076863 290 151 C294 157.71386431 294 157.71386431 294 160 C298.455 161.485 298.455 161.485 303 163 C302.814375 164.010625 302.62875 165.02125 302.4375 166.0625 C302.00231753 169.97914227 302.29146979 173.14244663 303 177 C304.09828125 177.38865234 304.09828125 177.38865234 305.21875 177.78515625 C313.01845056 181.19204793 317.98128179 187.37249674 321.14453125 195.11328125 C322.28862344 198.97393938 322.65084472 202.67269318 322.76171875 206.6875 C322.84667089 209.2753763 322.84667089 209.2753763 325 212 C325.144375 213.051875 325.28875 214.10375 325.4375 215.1875 C326.44324269 222.63104865 326.44324269 222.63104865 330.765625 228.4765625 C333.78214259 230.35325092 336.89903429 231.94848688 340.0625 233.5625 C346.9416427 239.27072479 350.40877326 248.17932392 353.078125 256.52734375 C353.94270952 259.10045537 353.94270952 259.10045537 355.609375 261.56640625 C357 264 357 264 357 268 C357.66 268 358.32 268 359 268 C359.33 266.35 359.66 264.7 360 263 C362.96175123 263.61277612 364.38058783 264.25372522 367 266 C367 266.99 367 267.98 367 269 C365.35 269.66 363.7 270.32 362 271 C366.17458656 275.53240827 369.15998982 277.56307536 375.25 278.5 C380.89343561 279.99494983 384.65658376 285.51178592 388 290 C388 290.66 388 291.32 388 292 C388.55558594 292.23074219 389.11117187 292.46148437 389.68359375 292.69921875 C392.62668155 294.35191392 394.68443518 296.42008788 397.0625 298.8125 C397.91972656 299.66457031 398.77695313 300.51664062 399.66015625 301.39453125 C401.86671661 303.85158594 403.5538414 306.03537488 405 309 C404.6875 312.625 404.6875 312.625 404 316 C404 316.99 404 317.98 404 319 C406.61893634 321.4403725 408.8916235 323.47841106 412.125 325 C414.81046131 326.43224603 416.21725331 328.58055807 418 331 C422.22234885 329.64350743 422.22234885 329.64350743 426.25 327.8125 C429.25423113 326.92488626 430.70419656 327.18926672 433.75 327.6875 C437.86697115 328.22713245 439.830448 327.87582919 443.3125 325.625 C448.09224044 322.54074681 452.38297751 322.33004424 457.984375 322.140625 C460.77365016 322.01055517 463.27734806 321.58309746 466 321 C467.6396875 320.9071875 467.6396875 320.9071875 469.3125 320.8125 C472.99331918 320.00147204 474.2194073 319.27338901 477.0625 317 C480.36529946 314.37176074 482.60249119 312.71320595 487 313 C489.55420797 314.62282187 491.18640943 315.67523617 493 318 C493.42806449 320.99037957 493.54108449 323.12855078 493.3125 326.0625 C492.87298236 332.10530904 492.87298236 332.10530904 494 338 C493.01 338 492.02 338 491 338 C491.02320313 338.98742187 491.04640625 339.97484375 491.0703125 340.9921875 C491.08835937 342.27351563 491.10640625 343.55484375 491.125 344.875 C491.14820313 346.15117187 491.17140625 347.42734375 491.1953125 348.7421875 C491 352 491 352 489 354 C488.02965962 356.44923265 487.12354422 358.89170808 486.25 361.375 C483.98502772 367.62986757 481.38385008 373.5384695 478.3125 379.44921875 C477.22176989 381.56900077 476.23171795 383.67749459 475.3125 385.875 C474.00247384 388.99410992 472.51249851 391.97500297 471 395 C470.505 396.175625 470.01 397.35125 469.5 398.5625 C468 402 468 402 466.4375 404.5625 C464.85081177 407.03738163 464.85081177 407.03738163 464 410.25 C463.67 411.1575 463.34 412.065 463 413 C462.01 413.33 461.02 413.66 460 414 C459.72027344 414.56976563 459.44054688 415.13953125 459.15234375 415.7265625 C457.28171566 419.41708977 454.07393198 421.96883201 451.07617188 424.7578125 C447.79316899 427.91233079 445.93353084 430.91180137 444 435 C440.56420658 438.21171994 437.01063261 440.59362043 433 443 C431.515 444.2375 431.515 444.2375 430 445.5 C427.38328585 447.68059512 424.91295792 449.27016428 422 451 C420.10680675 452.24356812 418.2320767 453.51561586 416.375 454.8125 C415.43398437 455.45832031 414.49296875 456.10414063 413.5234375 456.76953125 C410.69541906 459.26921938 409.6232173 461.63628091 408 465 C407.01 465.33 406.02 465.66 405 466 C403.94615572 467.85180503 403.94615572 467.85180503 403 470 C402.04872076 471.33285086 401.06818529 472.64520719 400.0625 473.9375 C398.37936537 476.12517139 396.93284709 478.1251486 395.625 480.5625 C393.10268789 484.34596816 389.78603356 487.47839991 386 490 C384.68 490 383.36 490 382 490 C382.185625 491.11375 382.185625 491.11375 382.375 492.25 C382 495 382 495 379.25 497.3125 C376 499 376 499 372 499 C371.87093262 499.57886963 371.74186523 500.15773926 371.60888672 500.75415039 C371.01006785 502.96286523 370.23228227 504.86619223 369.2578125 506.93359375 C368.91363281 507.66513672 368.56945313 508.39667969 368.21484375 509.15039062 C367.67537109 510.28250977 367.67537109 510.28250977 367.125 511.4375 C366.77308594 512.18837891 366.42117188 512.93925781 366.05859375 513.71289062 C364.59302723 516.81019385 363.1245207 519.79626542 361.3359375 522.72265625 C359.92111203 525.13447862 359.20812516 527.30238035 358.5 530 C357.64962409 533.07408617 356.96221075 535.05733541 355.1875 537.75 C353.71960744 540.00689535 353.71960744 540.00689535 354.375 542.875 C356.26340469 546.50654749 358.54864873 548.65275423 361.63671875 551.2890625 C362.08660156 551.85367188 362.53648437 552.41828125 363 553 C362.76953125 554.8359375 362.76953125 554.8359375 362 557 C361.2149251 561.24174795 360.72170516 565.45085599 360.375 569.75 C360.27960937 570.87921875 360.18421875 572.0084375 360.0859375 573.171875 C359.77778747 575.95071948 359.77778747 575.95071948 361 578 C361.12855717 579.74837746 361.22877269 581.49890308 361.3125 583.25 C361.74137348 588.22103353 362.57140146 591.20074216 366 595 C367.0725 595.680625 368.145 596.36125 369.25 597.0625 C372 599 372 599 372.625 601.3125 C372 604 372 604 369.94140625 607.1171875 C367.41929122 611.43944237 367.77000763 614.96705675 368.3125 619.8125 C368.4500261 621.40183468 368.58158177 622.99169777 368.70703125 624.58203125 C368.76713379 625.34080566 368.82723633 626.09958008 368.88916016 626.88134766 C369.07311579 630.39757446 368.68634319 633.78029912 368.15625 637.25 C367.83590084 639.10928896 367.83590084 639.10928896 369 641 C369.96138568 649.37257402 369.15876425 655.20323015 364.5078125 662.26953125 C363.76144531 663.12611328 363.76144531 663.12611328 363 664 C362.34 664 361.68 664 361 664 C360.938125 664.53625 360.87625 665.0725 360.8125 665.625 C358.30846733 672.94448011 352.20146503 675.91110597 345.6875 679.125 C344.87087891 679.54136719 344.05425781 679.95773437 343.21289062 680.38671875 C341.59324704 681.21009135 339.96958128 682.02560464 338.34179688 682.83276367 C336.81467939 683.5939343 335.29464438 684.36953488 333.78320312 685.16137695 C330.21198737 687.02019977 327.16392348 688.41287115 323.125 688.9375 C320.89157442 689.33137528 320.89157442 689.33137528 319 690 C317.54018811 692.18827127 317.54018811 692.18827127 317 695 C314.30741997 701.32170963 310.89257499 703.68987501 305.03125 707.15625 C300.89064738 709.67476087 297.07767935 712.57541318 293.21484375 715.49609375 C291 717 291 717 289 717 C289.66 717.99 290.32 718.98 291 720 C291.50312433 721.50660857 291.95685711 723.03012929 292.375 724.5625 C293.39856139 728.1843326 294.63816963 731.51035932 296.1875 734.9375 C299.31273368 742.54103788 298.64121 749.38710058 296 757 C295.94751431 759.04141719 295.90701922 761.08315925 295.875 763.125 C295.48864976 768.5339033 295.48864976 768.5339033 293.4765625 770.453125 C291.5 771.375 291.5 771.375 289.30078125 772.15625 C286.76495911 773.08619496 284.89033021 774.31912713 282.6875 775.875 C275.83388728 780.55869728 268.45730714 784.37212085 261 788 C261.66 788.33 262.32 788.66 263 789 C263.35390763 793.60079922 262.52019085 797.04888972 260.9765625 801.3046875 C260.24045036 803.33635701 259.55652306 805.3870449 258.8984375 807.4453125 C256.59879816 814.43324881 254.51127743 820.0202671 249 825 C248.49210938 825.47953125 247.98421875 825.9590625 247.4609375 826.453125 C245.17487958 828.49299207 243.21678071 829.92437882 240.3125 830.9375 C236.97400889 832.47140132 236.48143286 834.71508367 235 838 C233.25 840.375 233.25 840.375 231 843 C230.51789062 843.58523438 230.03578125 844.17046875 229.5390625 844.7734375 C222.67371718 852.92804955 215.09407759 859.64867589 205.9375 865.1171875 C203.25749028 866.83495969 200.86885981 868.73468169 198.40869141 870.74682617 C186.99842157 879.79745086 170.79968147 884.03554634 156.3046875 883.30859375 C154.6830868 883.09146417 153.06904994 882.8135231 151.46484375 882.4921875 C140.50237541 880.30316847 129.94647162 884.018598 119.48046875 887.00390625 C118.43503906 887.29136719 117.38960937 887.57882812 116.3125 887.875 C115.40113281 888.14054688 114.48976563 888.40609375 113.55078125 888.6796875 C110.43039712 889.07152747 108.7699875 888.4256585 106 887 C105 886 104 885 103 884 C100.26486964 882.74331848 97.91822093 881.98664831 94.9375 881.5 C90.8423727 879.40887117 90.1741587 876.77301529 88.56640625 872.60546875 C87.92363159 869.64870531 88.11952799 867.87938145 89 865 C89.66 864.01 90.32 863.02 91 862 C92.50582726 856.81565187 91.43738735 852.51050666 88.90625 847.87890625 C87.20110608 844.95386911 85.4006698 842.09891792 83.578125 839.24609375 C81.28273977 835.62602337 79.54774849 831.92581597 77.93457031 827.95898438 C76.95764238 825.69524724 76.95764238 825.69524724 74.5 823.0625 C71.67598394 819.60308032 70.5002949 816.3977233 68.96875 812.25390625 C67.79432486 809.52147356 66.15519376 808.016149 64 806 C63.25673596 804.31957694 62.51826766 802.63563131 61.85546875 800.921875 C60.89753289 798.76979991 59.69386747 796.94995878 58.375 795 C55.40597874 790.32423598 55.14257829 786.2896396 54.80078125 780.80078125 C54.72214844 779.60839844 54.64351562 778.41601562 54.5625 777.1875 C54.48257812 775.96289062 54.40265625 774.73828125 54.3203125 773.4765625 C54.05164389 770.5605251 53.61186718 767.90244064 52.9375 765.0625 C51.92128135 760.74890054 52.12305087 756.91573998 52.375 752.5 C52.50397124 745.38508643 50.79190088 742.28215618 46.015625 737.171875 C43.7235264 734.70209434 42.49476622 732.39534361 41.109375 729.36328125 C39.61301806 726.17561946 37.92485188 723.09609467 36.25 720 C34.04780738 715.9141351 31.89058734 711.81468187 29.84375 707.6484375 C29.3173291 706.57722656 29.3173291 706.57722656 28.78027344 705.484375 C28.11128364 704.11468973 27.44755438 702.74241791 26.79003906 701.3671875 C24.89690019 697.48953055 22.6899331 694.35082184 20 691 C18.69768755 684.92254189 18.94867805 678.85633874 19.0625 672.66015625 C19.30805267 670.0779517 19.30805267 670.0779517 18 669 C16.74113251 657.45231164 20.85461274 646.95253526 24.9375 636.375 C25.27330078 635.48506348 25.60910156 634.59512695 25.95507812 633.67822266 C26.28830078 632.84339355 26.62152344 632.00856445 26.96484375 631.1484375 C27.2599585 630.39739746 27.55507324 629.64635742 27.85913086 628.87255859 C29.25802058 626.5764995 30.5823865 626.06899406 33 625 C33.68486725 623.67592331 34.34870203 622.34090759 35 621 C36.6459651 619.31288577 38.31237149 617.6454378 40 616 C41.86190044 613.20714934 42.41797842 611.79886258 43.0625 608.625 C43.21847656 607.87476563 43.37445312 607.12453125 43.53515625 606.3515625 C43.68855469 605.57554687 43.84195312 604.79953125 44 604 C44.23074219 603.16597656 44.46148438 602.33195313 44.69921875 601.47265625 C45.07393546 598.39219293 44.4256951 597.37901002 42.75 594.8125 C40.2872647 590.73061828 38.92179907 586.87253371 37.703125 582.28125 C37.02018 579.75392415 37.02018 579.75392415 35.125 576.8125 C34 574 34 574 35.3125 570.5625 C35.869375 569.386875 36.42625 568.21125 37 567 C37.53799689 561.34430771 36.35966343 557.9570568 33.6875 553 C30.26419321 546.56963756 27.37081306 540.61386165 25.640625 533.51171875 C24.76918418 530.0950331 23.86875289 526.69534934 22.875 523.3125 C22.34519531 521.41951172 22.34519531 521.41951172 21.8046875 519.48828125 C19.7090996 515.4377185 18.05318431 514.49961561 14.19775391 512.3605957 C10.15430551 509.85735888 7.03345354 506.34267853 3.75 502.9375 C3.05648438 502.23044922 2.36296875 501.52339844 1.6484375 500.79492188 C0.32194506 499.44174711 -0.99894048 498.08304536 -2.31323242 496.71801758 C-3.57719514 495.43063798 -4.90211424 494.20263732 -6.25390625 493.0078125 C-8.86394762 490.00655687 -10.17897284 486.58885876 -11.6875 482.9375 C-11.99494141 482.21755859 -12.30238281 481.49761719 -12.61914062 480.75585938 C-13.84683447 477.86258525 -15.00582425 474.98252724 -16 472 C-18.01508358 471.26676204 -18.01508358 471.26676204 -20 471 C-19.67 469.68 -19.34 468.36 -19 467 C-16.69 467.33 -14.38 467.66 -12 468 C-11.67 463.71 -11.34 459.42 -11 455 C-9.68 454.67 -8.36 454.34 -7 454 C-7.33 453.319375 -7.66 452.63875 -8 451.9375 C-10.23418736 445.37457464 -8.57313028 439.59760965 -6.5625 433.25 C-6.33240234 432.49589844 -6.10230469 431.74179687 -5.86523438 430.96484375 C-4.94585463 427.96420146 -3.99242483 424.97727449 -3 422 C-4.61871598 418.54673923 -6.76565355 417.53622597 -10.1875 416.25 C-11.45419633 415.82092088 -12.72386027 415.40011982 -14 415 C-14.12375 415.78375 -14.2475 416.5675 -14.375 417.375 C-15 420 -15 420 -17 422 C-18.32 422 -19.64 422 -21 422 C-21 420.35 -21 418.7 -21 417 C-20.071875 416.9071875 -20.071875 416.9071875 -19.125 416.8125 C-16.74879337 416.16906685 -16.74879337 416.16906685 -15.6875 413.5625 C-14.70567636 411.03555588 -14.70567636 411.03555588 -16 409 C-19.47763025 408.74167726 -22.95672098 408.52379329 -26.4375 408.3125 C-27.41138672 408.23966797 -28.38527344 408.16683594 -29.38867188 408.09179688 C-35.95870545 407.71824982 -40.93081303 408.49772828 -47 411 C-50 412 -50 412 -52.4375 411.4375 C-57.84085221 408.4063512 -59.46129462 402.95504528 -61.8125 397.5 C-65.01757249 390.43756639 -68.11680902 386.51012983 -75.375 383.6875 C-77.169375 383.3471875 -77.169375 383.3471875 -79 383 C-79.66644531 382.86722656 -80.33289063 382.73445313 -81.01953125 382.59765625 C-92.37572476 380.77657297 -103.32104646 384.79684982 -113.96972656 388.33544922 C-115.93892729 388.98000963 -117.91564183 389.59014879 -119.8984375 390.19140625 C-129.26007934 393.11571293 -137.97746523 396.92235719 -146.12890625 402.44140625 C-150.4575736 405.17958205 -153.17910639 405.08904138 -158.1875 404 C-161.55359377 403.10570143 -164.71444118 402.12194547 -167.91796875 400.75390625 C-180.67034337 395.61589534 -195.81272164 399.56259067 -208.1875 404.625 C-210.51663393 405.72147385 -212.75801574 406.85872319 -214.98046875 408.15625 C-220.50130758 410.4628287 -227.75878362 408.32538437 -233.1875 406.4375 C-237.75074902 404.44783692 -240.72547084 401.7048252 -244.07421875 398.07421875 C-246.52666332 395.43274194 -249.19717394 393.13311642 -251.93359375 390.79296875 C-253.38758194 389.53137975 -254.81528056 388.239167 -256.22265625 386.92578125 C-261.82089789 381.73084346 -266.89169111 378.47773355 -274.0625 375.8984375 C-282.64292071 372.70140574 -282.64292071 372.70140574 -284.75 368.5625 C-285.1625 367.386875 -285.575 366.21125 -286 365 C-287.95088903 363.58985096 -287.95088903 363.58985096 -290.1875 362.3125 C-292.32421875 360.88671875 -292.32421875 360.88671875 -294 359 C-294.69677267 354.91890291 -294.47754267 351.09890788 -294 347 C-294.64324219 346.89300781 -295.28648437 346.78601563 -295.94921875 346.67578125 C-296.62597656 346.45277344 -297.30273438 346.22976563 -298 346 C-298.268125 345.071875 -298.53625 344.14375 -298.8125 343.1875 C-300.50240202 338.65144721 -302.73709312 338.13145344 -307 336 C-309.76223278 333.23776722 -309.57856291 330.79293383 -310 327 C-311.670625 327.061875 -311.670625 327.061875 -313.375 327.125 C-317 327 -317 327 -319 325 C-319.1875 322.4375 -319.1875 322.4375 -319 320 C-318.67 319.67 -318.34 319.34 -318 319 C-320.64 318.67 -323.28 318.34 -326 318 C-326 317.01 -326 316.02 -326 315 C-326.99 314.67 -327.98 314.34 -329 314 C-329 313.01 -329 312.02 -329 311 C-330.32 310.67 -331.64 310.34 -333 310 C-333.08132187 307.43685501 -333.14064175 304.87631582 -333.1875 302.3125 C-333.21263672 301.59126953 -333.23777344 300.87003906 -333.26367188 300.12695312 C-333.32672457 295.52410662 -332.77816458 292.69692767 -330 289 C-331.1446875 288.62875 -331.1446875 288.62875 -332.3125 288.25 C-335.44463315 286.79319388 -336.48717792 286.10526637 -338 283 C-338.74391113 279.80370386 -338.83733084 277.18607017 -338 274 C-336.18904052 271.71810543 -334.19547732 269.88844879 -332.03125 267.94140625 C-326.2475371 262.41351142 -324.82374227 254.36170901 -322.83203125 246.87890625 C-322 244 -322 244 -321 243 C-320.54232556 236.73092448 -320.94026392 230.77649152 -322.1875 224.625 C-323.11518465 219.73066376 -322.84118662 217.26177993 -320 213 C-320 212.01 -320 211.02 -320 210 C-320.639375 210.185625 -321.27875 210.37125 -321.9375 210.5625 C-322.9584375 210.7790625 -322.9584375 210.7790625 -324 211 C-325.93270447 209.06729553 -325.65374251 205.59693119 -326 203 C-326.2475 202.175 -326.495 201.35 -326.75 200.5 C-327.1196878 196.80312198 -325.56355872 194.30752806 -324 191 C-323.65772583 189.66893378 -323.32248257 188.33599921 -323 187 C-321.68791252 183.71978131 -319.68899727 181.36096879 -317.31640625 178.7578125 C-315.84790511 176.90837471 -315.84790511 176.90837471 -314.60546875 174.1796875 C-311.29043058 167.61413745 -306.50682112 160.5473584 -300.4375 156.25 C-294.08422674 151.33660409 -290.65427043 141.52291167 -287.95703125 134.1484375 C-286.49660963 130.86993998 -284.05302334 129.71732563 -281 128 C-280.34 128 -279.68 128 -279 128 C-278.505 126.515 -278.505 126.515 -278 125 C-276.52876037 123.86313301 -275.05748095 122.72631745 -273.5859375 121.58984375 C-271.69668112 119.69593403 -270.94221422 117.88085887 -269.875 115.4375 C-267.69989689 111.1861621 -265.62838725 110.05242663 -261.125 108.5625 C-259.0931142 108.00472743 -257.05161209 107.48016453 -255 107 C-248.04344369 105.31696218 -244.04795654 103.07193481 -240 97 C-239.278125 96.608125 -238.55625 96.21625 -237.8125 95.8125 C-233.521612 93.04726107 -229.16212031 88.97676808 -227.26953125 84.12890625 C-226.91454911 81.32506184 -227.21697126 78.69098236 -227.4375 75.875 C-227.53435579 68.03848619 -224.23605053 64.42714726 -219 59 C-218.39027344 58.175 -217.78054688 57.35 -217.15234375 56.5 C-214.5712701 53.50201972 -211.64848431 51.54773418 -208.3125 49.5 C-207.69181641 49.11054199 -207.07113281 48.72108398 -206.43164062 48.31982422 C-194.94882234 41.1684013 -194.94882234 41.1684013 -188.6875 38.6875 C-184.8150235 36.25594499 -183.7841983 33.08276007 -182 29 C-181.00585407 27.32983484 -180.0064275 25.66279327 -179 24 C-178.608125 22.989375 -178.21625 21.97875 -177.8125 20.9375 C-175.4135821 17.04959858 -172.39578773 15.22339582 -168 14 C-165.87109375 14.02734375 -165.87109375 14.02734375 -164 15 C-162.75 18.0625 -162.75 18.0625 -162 21 C-159.91695462 21.05418326 -157.83350232 21.09287551 -155.75 21.125 C-154.58984375 21.14820312 -153.4296875 21.17140625 -152.234375 21.1953125 C-149.10673399 21.00644529 -147.66741763 20.47660619 -145 19 C-142.25 19.375 -142.25 19.375 -140 20 C-140 20.99 -140 21.98 -140 23 C-134.46238213 22.74886087 -130.43198657 22.0249501 -125.73828125 19.046875 C-121.36252482 16.41158798 -116.61766857 15.07528086 -111.625 14.1875 C-107.84699261 13.43449509 -105.22416243 12.03370468 -102 9.9375 C-97.86209247 7.27372203 -94.70973384 6.28911502 -89.8125 6.10546875 C-87.89859996 6.11367492 -87.89859996 6.11367492 -86 5 C-76.24651922 2.72363396 -64.79756418 1.34303344 -55 4 C-53.50298215 4.11333058 -52.0012465 4.17464686 -50.5 4.1875 C-49.37078125 4.20876953 -49.37078125 4.20876953 -48.21875 4.23046875 C-45.96274461 4.12840282 -45.96274461 4.12840282 -44.0078125 3 C-41.63132169 1.81637812 -40.01365696 1.76396283 -37.375 1.8125 C-36.59898437 1.81894531 -35.82296875 1.82539062 -35.0234375 1.83203125 C-33 2 -33 2 -31 3 C-23.20177763 3.60523517 -16.23279718 2.90303782 -8.75390625 0.65625 C-5.69320284 -0.07310911 -3.13468397 -0.27980443 0 0 Z " fill="#49A1D8" transform="translate(681,44)"/>
<path d="M0 0 C2.69718009 2.41816146 2.93294289 5.16540871 3.8125 8.625 C4.7726817 10.31491979 5.76605934 11.98709288 6.8125 13.625 C8.25762009 17.96036026 8.20272195 22.37606217 8.41796875 26.90820312 C8.55281487 30.89642972 8.55281487 30.89642972 9.8125 34.625 C9.86874936 42.56740992 8.94821921 48.82107485 4.8125 55.625 C2.8325 55.13 2.8325 55.13 0.8125 54.625 C0.79268066 55.27049805 0.77286133 55.91599609 0.75244141 56.58105469 C0.65703672 59.51277221 0.54742029 62.44379232 0.4375 65.375 C0.4065625 66.39078125 0.375625 67.4065625 0.34375 68.453125 C0.30507812 69.4328125 0.26640625 70.4125 0.2265625 71.421875 C0.17943115 72.77297363 0.17943115 72.77297363 0.13134766 74.15136719 C-0.20456484 76.75738974 -0.76205344 78.42524444 -2.1875 80.625 C-3.85267108 81.29539355 -5.51945094 81.96179977 -7.1875 82.625 C-13.40566167 89.4755171 -18.14643018 98.46756187 -20.5625 107.375 C-23.25023108 117.04779491 -28.7610393 125.91069146 -33.5859375 134.64453125 C-35.54545735 138.29114991 -37.40307563 141.98289331 -39.25 145.6875 C-39.59321289 146.37271729 -39.93642578 147.05793457 -40.29003906 147.76391602 C-41.77947119 150.74815599 -43.2382961 153.73537856 -44.6328125 156.765625 C-47.55146578 163.043483 -47.55146578 163.043483 -50.375 165.625 C-54.56381884 167.11435781 -58.80921319 167.89881072 -63.1875 168.625 C-64.26 168.810625 -65.3325 168.99625 -66.4375 169.1875 C-67.79875 169.4040625 -67.79875 169.4040625 -69.1875 169.625 C-70.239375 169.8725 -71.29125 170.12 -72.375 170.375 C-73.303125 170.4575 -74.23125 170.54 -75.1875 170.625 C-76.75 169.3125 -76.75 169.3125 -78.1875 167.625 C-80.78665538 166.43472016 -80.78665538 166.43472016 -83.1875 165.625 C-83.290625 164.573125 -83.39375 163.52125 -83.5 162.4375 C-83.92064448 158.70340426 -83.92064448 158.70340426 -85.72265625 156.25 C-87.46894154 153.12065676 -87.46758747 151.36582762 -87.3125 147.8125 C-87.20354881 143.98613433 -87.17589079 140.24166447 -87.50390625 136.4296875 C-87.56368652 135.72432861 -87.6234668 135.01896973 -87.68505859 134.29223633 C-87.86678904 132.27848545 -88.06389243 130.26613966 -88.26171875 128.25390625 C-88.17881085 124.20014622 -87.19090927 122.097243 -85.1875 118.625 C-84.94 117.635 -84.6925 116.645 -84.4375 115.625 C-83.15893386 112.55644126 -82.42422023 111.76773352 -79.9375 109.75 C-74.0946433 104.98402191 -74.0946433 104.98402191 -70.1875 98.625 C-69.69380144 93.04097009 -70.11508991 87.57690629 -70.5625 82 C-70.73056062 79.76208936 -70.88867971 77.52514717 -71.02090454 75.28482056 C-71.14190693 73.25783517 -71.29727718 71.23298715 -71.45458984 69.20849609 C-71.13474114 64.91714397 -69.78859859 62.98654658 -67.1875 59.625 C-66.41422355 58.04162441 -65.67871836 56.43865378 -65 54.8125 C-63.27709538 50.71459538 -63.27709538 50.71459538 -62.1875 49.625 C-60.23499137 49.29659641 -58.27486367 49.0131876 -56.3125 48.75 C-53.93651872 48.38126848 -51.56149638 48.00630195 -49.1875 47.625 C-48.21167969 47.47804688 -47.23585938 47.33109375 -46.23046875 47.1796875 C-39.06121465 45.7232725 -35.357873 42.48418969 -30.4921875 37.11328125 C-28.45439821 34.9131596 -26.47256295 33.25673263 -24.0625 31.5 C-22.03600322 29.84281805 -21.28651598 29.14978472 -20.796875 26.5546875 C-20.78085375 24.10838655 -20.78085375 24.10838655 -21.1875 20.625 C-20.8575 19.965 -20.5275 19.305 -20.1875 18.625 C-19.1975 18.625 -18.2075 18.625 -17.1875 18.625 C-17.1875 19.285 -17.1875 19.945 -17.1875 20.625 C-16.1975 20.625 -15.2075 20.625 -14.1875 20.625 C-13.960625 19.696875 -13.73375 18.76875 -13.5 17.8125 C-12.50958175 14.40183435 -11.25659008 11.14650103 -9.875 7.875 C-9.48699219 6.95203125 -9.09898438 6.0290625 -8.69921875 5.078125 C-6.64260669 1.74078036 -4.08389004 -0.70009544 0 0 Z " fill="#4AA1D7" transform="translate(1151.1875,661.375)"/>
<path d="M0 0 C0.66 0 1.32 0 2 0 C2 0.99 2 1.98 2 3 C1.01 3.495 1.01 3.495 0 4 C-1.0064275 5.66279327 -2.00585407 7.32983484 -3 9 C-4.5 10.8125 -4.5 10.8125 -6 12 C-6.99 12 -7.98 12 -9 12 C-8.938125 12.7425 -8.87625 13.485 -8.8125 14.25 C-9 17 -9 17 -10.5 18.75 C-14.15873392 24.23810088 -11.95583575 33.75756652 -11 40 C-10.67 40.66 -10.34 41.32 -10 42 C-10.22243934 43.82229153 -10.52555913 45.63524675 -10.875 47.4375 C-11.05804687 48.40558594 -11.24109375 49.37367188 -11.4296875 50.37109375 C-12 53 -12 53 -13 56 C-15.05037278 52.62291542 -15.18665082 50.16323379 -15.0625 46.25 C-14.98430339 42.40533341 -14.99158185 38.63040548 -15.3203125 34.80078125 C-15.37952881 34.09598633 -15.43874512 33.39119141 -15.49975586 32.66503906 C-15.67951594 30.65191314 -15.87647056 28.64034487 -16.07421875 26.62890625 C-15.99131085 22.57514622 -15.00340927 20.472243 -13 17 C-12.62875 15.515 -12.62875 15.515 -12.25 14 C-10.72771164 10.34650793 -8.80086215 8.86401093 -5.74609375 6.45703125 C-3.48364534 4.56912687 -1.82638286 2.29988953 0 0 Z " fill="#4296C2" transform="translate(1079,763)"/>
<path d="M0 0 C0.33 0 0.66 0 1 0 C1.04970487 4.71393321 1.085863 9.4277114 1.10986328 14.1418457 C1.11987623 15.74310974 1.1334906 17.34435571 1.15087891 18.94555664 C1.17533565 21.25671876 1.18653029 23.56763762 1.1953125 25.87890625 C1.20563507 26.58648575 1.21595764 27.29406525 1.22659302 28.02308655 C1.22764468 32.75834265 0.46788729 36.55316497 -1 41 C-1.99 40.67 -2.98 40.34 -4 40 C-3.67 39.01 -3.34 38.02 -3 37 C-3.03091823 34.71078561 -3.12844116 32.42225929 -3.26171875 30.13671875 C-3.32971333 28.76111372 -3.39674 27.38546056 -3.46289062 26.00976562 C-3.57197565 23.84988205 -3.68728154 21.6910644 -3.81958008 19.5324707 C-3.94473031 17.4427251 -4.04271306 15.35306729 -4.13671875 13.26171875 C-4.20592529 12.01350342 -4.27513184 10.76528809 -4.34643555 9.47924805 C-3.93201609 5.31723838 -2.60090469 3.22415726 0 0 Z " fill="#4697BF" transform="translate(1084,721)"/>
<path d="M0 0 C0.33 0 0.66 0 1 0 C1.05814085 3.58326501 1.09364357 7.16640838 1.125 10.75 C1.14175781 11.76578125 1.15851563 12.7815625 1.17578125 13.828125 C1.18222656 14.8078125 1.18867187 15.7875 1.1953125 16.796875 C1.20578613 17.69760742 1.21625977 18.59833984 1.22705078 19.52636719 C0.9828154 22.18721979 0.48257631 23.7839915 -1 26 C-3.625 26.75 -3.625 26.75 -6 27 C-6 25.68 -6 24.36 -6 23 C-4.68 23 -3.36 23 -2 23 C-2 22.34 -2 21.68 -2 21 C-2.66 21 -3.32 21 -4 21 C-3.67 18.69 -3.34 16.38 -3 14 C-3.99 14 -4.98 14 -6 14 C-6 13.34 -6 12.68 -6 12 C-5.34 11.67 -4.68 11.34 -4 11 C-3.21984379 9.17489003 -2.52204594 7.31393324 -1.875 5.4375 C-1.52179688 4.42558594 -1.16859375 3.41367187 -0.8046875 2.37109375 C-0.40636719 1.19740234 -0.40636719 1.19740234 0 0 Z " fill="#55A4C5" transform="translate(1150,716)"/>
<path d="M0 0 C1.32 0 2.64 0 4 0 C3.8125 1.8125 3.8125 1.8125 3 4 C1.33779419 5.00739746 -0.33020674 6.00522955 -2 7 C-6.47466684 10.92604868 -10.05423791 14.27247467 -12 20 C-12.66 20 -13.32 20 -14 20 C-14.061875 20.598125 -14.12375 21.19625 -14.1875 21.8125 C-15.3236757 24.87143458 -17.17330142 25.55041099 -20 27 C-19.48508227 22.49446983 -17.9357214 20.39925635 -15 17 C-13.87325048 15.50131374 -12.7484087 14.00119216 -11.625 12.5 C-8.71527898 8.73300633 -5.71953142 5.94102484 -2 3 C-1.34 2.01 -0.68 1.02 0 0 Z " fill="#4496C5" transform="translate(386,194)"/>
<path d="M0 0 C0.33 0.66 0.66 1.32 1 2 C1.99 1.67 2.98 1.34 4 1 C4.33 1.66 4.66 2.32 5 3 C4.34 3 3.68 3 3 3 C3 3.66 3 4.32 3 5 C2.01 5.495 2.01 5.495 1 6 C1.04125 7.258125 1.0825 8.51625 1.125 9.8125 C1.2390374 13.29064073 1.05925681 13.91111478 -1 17 C-0.36149212 19.34119555 0.30643577 21.67451993 1 24 C0.625 26.4375 0.625 26.4375 0 28 C-1.65 28 -3.3 28 -5 28 C-5.33 29.32 -5.66 30.64 -6 32 C-6 30.35 -6 28.7 -6 27 C-4.68 26.67 -3.36 26.34 -2 26 C-2.33 25.319375 -2.66 24.63875 -3 23.9375 C-5.06478981 17.87217993 -3.82413964 12.5479582 -2 6.5625 C-1.62875 5.32628906 -1.2575 4.09007812 -0.875 2.81640625 C-0.441875 1.42228516 -0.441875 1.42228516 0 0 Z " fill="#5E9FCD" transform="translate(676,472)"/>
<path d="M0 0 C-1.28786716 3.86360149 -3.27165398 7.13582699 -7 9 C-7.433125 9.99 -7.433125 9.99 -7.875 11 C-8.24625 11.66 -8.6175 12.32 -9 13 C-10.32594105 13.36162029 -11.65938457 13.69728039 -13 14 C-13.88639389 16.65918166 -14.17989025 18.48064641 -14.31640625 21.23046875 C-14.35830078 22.03291016 -14.40019531 22.83535156 -14.44335938 23.66210938 C-14.48267578 24.49548828 -14.52199219 25.32886719 -14.5625 26.1875 C-14.60568359 27.03248047 -14.64886719 27.87746094 -14.69335938 28.74804688 C-14.79931518 30.83184433 -14.9001502 32.91590103 -15 35 C-15.66 34.67 -16.32 34.34 -17 34 C-18.37828162 17.49890613 -18.37828162 17.49890613 -13.25 11.25 C-11.85416333 9.81280521 -10.43749658 8.39552588 -9 7 C-8.31421875 6.12859375 -7.6284375 5.2571875 -6.921875 4.359375 C-3.37086093 0 -3.37086093 0 0 0 Z " fill="#4B92CA" transform="translate(471,96)"/>
<path d="M0 0 C1.32 0 2.64 0 4 0 C4.06058594 0.69867187 4.12117188 1.39734375 4.18359375 2.1171875 C4.26738281 3.02726563 4.35117188 3.93734375 4.4375 4.875 C4.51871094 5.77992188 4.59992188 6.68484375 4.68359375 7.6171875 C4.86989285 10.01110861 4.86989285 10.01110861 6 12 C5.77756066 13.82229153 5.47444087 15.63524675 5.125 17.4375 C4.94195313 18.40558594 4.75890625 19.37367188 4.5703125 20.37109375 C4 23 4 23 3 26 C0.85141599 22.52013648 0.81679059 19.85385109 0.9375 15.8125 C1.02873007 10.42384359 0.72355707 5.33623342 0 0 Z " fill="#5092BB" transform="translate(1063,793)"/>
<path d="M0 0 C1.32 0 2.64 0 4 0 C4.43016434 5.59213641 2.90576979 9.84883981 1 15 C0.64035156 15.99773438 0.28070312 16.99546875 -0.08984375 18.0234375 C-1.05134278 20.68552378 -2.02197743 23.34394886 -3 26 C-3.33 26 -3.66 26 -4 26 C-4.3647648 19.92058665 -3.74496353 16.48992705 -1 11 C-0.45151623 7.34344156 -0.19046552 3.6910905 0 0 Z " fill="#4198CC" transform="translate(940,833)"/>
<path d="M0 0 C0.66 0.33 1.32 0.66 2 1 C1.21718695 2.33855056 0.42348123 3.67073644 -0.375 5 C-0.81585937 5.7425 -1.25671875 6.485 -1.7109375 7.25 C-2.34902344 8.11625 -2.34902344 8.11625 -3 9 C-3.66 9 -4.32 9 -5 9 C-5.2475 9.5775 -5.495 10.155 -5.75 10.75 C-7.16683317 13.3002997 -8.87627537 15.01785701 -11 17 C-10.65439856 7.94524237 -10.65439856 7.94524237 -8.3125 4.5625 C-5.61633035 2.74076375 -3.01051634 1.24347414 0 0 Z " fill="#4A9DD2" transform="translate(1091,501)"/>
<path d="M0 0 C1.32 0 2.64 0 4 0 C4 1.32 4 2.64 4 4 C3.01 4 2.02 4 1 4 C1.02320313 4.98742187 1.04640625 5.97484375 1.0703125 6.9921875 C1.08835937 8.27351563 1.10640625 9.55484375 1.125 10.875 C1.14820313 12.15117187 1.17140625 13.42734375 1.1953125 14.7421875 C1 18 1 18 -1 20 C-1.76259042 21.85359569 -2.46482767 23.73250598 -3.125 25.625 C-3.47820312 26.62789063 -3.83140625 27.63078125 -4.1953125 28.6640625 C-4.46085937 29.43492187 -4.72640625 30.20578125 -5 31 C-5.33 31 -5.66 31 -6 31 C-6 28.69 -6 26.38 -6 24 C-5.34 23.67 -4.68 23.34 -4 23 C-2.06390045 18.41997955 -1.66678206 14.1868818 -1.4375 9.25 C-1.09869848 2.19739696 -1.09869848 2.19739696 0 0 Z " fill="#419AC7" transform="translate(1171,378)"/>
<path d="M0 0 C3.98895422 7.36422317 6.45117485 14.5490406 5 23 C4.01 23.66 3.02 24.32 2 25 C1.86722656 23.77023437 1.73445313 22.54046875 1.59765625 21.2734375 C1.41935957 19.64061531 1.2409692 18.00780334 1.0625 16.375 C0.97548828 15.56675781 0.88847656 14.75851562 0.79882812 13.92578125 C0.41331639 10.413341 -0.00761788 6.95732093 -0.62890625 3.4765625 C-0.75136719 2.65929687 -0.87382812 1.84203125 -1 1 C-0.67 0.67 -0.34 0.34 0 0 Z " fill="#5296BF" transform="translate(359,262)"/>
<path d="M0 0 C2.96175123 0.61277612 4.38058783 1.25372522 7 3 C7 3.99 7 4.98 7 6 C5.35 6.66 3.7 7.32 2 8 C3.65 9.98 5.3 11.96 7 14 C4.75 14 4.75 14 2 13 C0.08637316 10.52558221 -1.1566666 8.01109644 -2 5 C-1.25 2 -1.25 2 0 0 Z " fill="#4897C6" transform="translate(1041,307)"/>
<path d="M0 0 C0 0.66 0 1.32 0 2 C-2.64 2 -5.28 2 -8 2 C-8 2.66 -8 3.32 -8 4 C-8.763125 4.268125 -9.52625 4.53625 -10.3125 4.8125 C-12.93032534 5.96921352 -14.10703497 6.93494724 -16 9 C-19 11 -19 11 -22 11 C-22.66 9.35 -23.32 7.7 -24 6 C-23.278125 6.05027344 -22.55625 6.10054688 -21.8125 6.15234375 C-18.58015351 5.97725832 -16.81837177 5.11700818 -14 3.5625 C-9.16756774 0.91221293 -5.52778236 0 0 0 Z " fill="#4D98C2" transform="translate(916,117)"/>
<path d="M0 0 C-0.90625 1.98046875 -0.90625 1.98046875 -3 4 C-6.16982011 4.55409331 -9.29282846 4.41972342 -12.5 4.3125 C-13.36753906 4.30283203 -14.23507812 4.29316406 -15.12890625 4.28320312 C-18.7145249 4.21947111 -21.57335169 4.1422161 -25 3 C-24.67 2.34 -24.34 1.68 -24 1 C-22.71416016 1.03480469 -22.71416016 1.03480469 -21.40234375 1.0703125 C-14.07301549 1.31679032 -14.07301549 1.31679032 -6.9375 -0.0625 C-4.00864967 -0.99723947 -2.80497399 -1.1219896 0 0 Z " fill="#408DB8" transform="translate(674,46)"/>
<path d="M0 0 C1.890625 0.6484375 1.890625 0.6484375 4 2 C5.046875 4.6015625 5.046875 4.6015625 5.75 7.625 C5.99234375 8.62789062 6.2346875 9.63078125 6.484375 10.6640625 C6.65453125 11.43492187 6.8246875 12.20578125 7 13 C7.66 13 8.32 13 9 13 C9.144375 14.175625 9.28875 15.35125 9.4375 16.5625 C9.91410176 20.38212272 10.44453544 24.19110019 11 28 C7.91942232 25.75957987 7.45467936 23.25469042 6.66796875 19.6640625 C5.77199228 16.09063588 4.60942652 12.61503206 3.4375 9.125 C3.10419678 8.12484863 3.10419678 8.12484863 2.76416016 7.10449219 C1.54724249 3.48543881 1.54724249 3.48543881 0 0 Z " fill="#4B94BD" transform="translate(700,558)"/>
<path d="M0 0 C5.90922696 5.35602273 8.95611748 13.38189243 11 21 C11 22.32 11 23.64 11 25 C9.046875 24.3515625 9.046875 24.3515625 7 23 C6.390625 20.3984375 6.390625 20.3984375 6.25 17.375 C6.19328125 16.37210938 6.1365625 15.36921875 6.078125 14.3359375 C6.05234375 13.56507813 6.0265625 12.79421875 6 12 C5.34 12 4.68 12 4 12 C3.3291288 10.3767313 2.66342971 8.75132422 2 7.125 C1.62875 6.22007812 1.2575 5.31515625 0.875 4.3828125 C0 2 0 2 0 0 Z " fill="#438EBB" transform="translate(944,125)"/>
<path d="M0 0 C1.5078125 1.109375 1.5078125 1.109375 3 3 C3.43967274 10.07299626 2.33775013 16.75985846 -1 23 C-1.99 23 -2.98 23 -4 23 C-3.690625 22.0925 -3.38125 21.185 -3.0625 20.25 C-1.72549365 16.16033353 -1 13.33456386 -1 9 C-0.34 8.67 0.32 8.34 1 8 C1 7.34 1 6.68 1 6 C0.34 5.67 -0.32 5.34 -1 5 C-0.67 3.35 -0.34 1.7 0 0 Z " fill="#5291BA" transform="translate(1158,693)"/>
<path d="M0 0 C0.99 0.33 1.98 0.66 3 1 C4.26264601 5.29299643 3.62950412 7.87831311 2 12 C0.0625 11.375 0.0625 11.375 -2 10 C-2.9375 7.125 -2.9375 7.125 -3 4 C-1.5625 1.625 -1.5625 1.625 0 0 Z " fill="#489DC9" transform="translate(772,906)"/>
<path d="M0 0 C1.5625 1.8125 1.5625 1.8125 3 4 C2.67 4.99 2.34 5.98 2 7 C1.34 6.67 0.68 6.34 0 6 C-0.12375 6.78375 -0.2475 7.5675 -0.375 8.375 C-1 11 -1 11 -3 13 C-4.32 13 -5.64 13 -7 13 C-7 11.35 -7 9.7 -7 8 C-6.401875 7.979375 -5.80375 7.95875 -5.1875 7.9375 C-2.56685398 7.09543384 -2.56685398 7.09543384 -1.25 3.4375 C-0.8375 2.303125 -0.425 1.16875 0 0 Z " fill="#4592D6" transform="translate(667,453)"/>
<path d="M0 0 C0.99 0 1.98 0 3 0 C2.1415463 5.05038344 -1.05285436 7.95139158 -5 11 C-8.4375 11.9375 -8.4375 11.9375 -11 12 C-11 13.65 -11 15.3 -11 17 C-11.33 17 -11.66 17 -12 17 C-12 15.02 -12 13.04 -12 11 C-11.01 10.67 -10.02 10.34 -9 10 C-8.67 9.34 -8.34 8.68 -8 8 C-7.21625 7.566875 -6.4325 7.13375 -5.625 6.6875 C-2.66581835 4.78516894 -1.76634461 2.97067049 0 0 Z " fill="#4199C5" transform="translate(1074,522)"/>
<path d="M0 0 C2.09350689 3.4019487 2.17942163 6.05272412 2 10 C2.66 10 3.32 10 4 10 C3.67 11.32 3.34 12.64 3 14 C3.66 14 4.32 14 5 14 C5.33 15.98 5.66 17.96 6 20 C0.89671664 15.40704497 -1.45251869 10.84351639 -2 4 C-1.34 4 -0.68 4 0 4 C0 2.68 0 1.36 0 0 Z " fill="#499CC2" transform="translate(738,824)"/>
<path d="M0 0 C1.37473375 4.27694946 0.38688443 6.83934671 -1 11 C-1.03954234 13.33299825 -1.04401732 15.66708189 -1 18 C0.32 17.67 1.64 17.34 3 17 C3 17.66 3 18.32 3 19 C1.02 19 -0.96 19 -3 19 C-3.0809313 16.39521117 -3.14045434 13.79293347 -3.1875 11.1875 C-3.22520508 10.08051758 -3.22520508 10.08051758 -3.26367188 8.95117188 C-3.33834499 3.45025238 -3.33834499 3.45025238 -1.48828125 0.98828125 C-0.99714844 0.66214844 -0.50601562 0.33601563 0 0 Z " fill="#5097C3" transform="translate(351,335)"/>
<path d="M0 0 C1.32 0 2.64 0 4 0 C3.67 2.97 3.34 5.94 3 9 C1.02 9.66 -0.96 10.32 -3 11 C-3 9.68 -3 8.36 -3 7 C-1.68 7 -0.36 7 1 7 C1 6.34 1 5.68 1 5 C0.34 5 -0.32 5 -1 5 C-0.67 3.35 -0.34 1.7 0 0 Z " fill="#428CAB" transform="translate(1147,732)"/>
<path d="M0 0 C1 2 1 2 0.1875 4.5625 C-1 7 -1 7 -3 8 C-3.68472665 9.88764903 -3.68472665 9.88764903 -4.125 12.0625 C-4.29257812 12.79597656 -4.46015625 13.52945312 -4.6328125 14.28515625 C-4.75398438 14.85105469 -4.87515625 15.41695313 -5 16 C-5.66 16 -6.32 16 -7 16 C-7.59823038 11.81238736 -8.00620405 8.39204169 -5.44140625 4.84375 C-3.69172192 3.12575009 -1.92043997 1.52361436 0 0 Z " fill="#4793CE" transform="translate(350,311)"/>
<path d="M0 0 C0.99 0.33 1.98 0.66 3 1 C2.67 1.99 2.34 2.98 2 4 C1.34 4 0.68 4 0 4 C0.99 6.64 1.98 9.28 3 12 C2.01 12 1.02 12 0 12 C0 11.01 0 10.02 0 9 C-1.32 9.33 -2.64 9.66 -4 10 C-4 7.69 -4 5.38 -4 3 C-2.68 2.67 -1.36 2.34 0 2 C0 1.34 0 0.68 0 0 Z " fill="#449CC5" transform="translate(956,163)"/>
<path d="M0 0 C2.31 0 4.62 0 7 0 C8.125 5.75 8.125 5.75 7 8 C4 8 4 8 1.8125 6.25 C0 4 0 4 0 0 Z " fill="#4C82A0" transform="translate(1193,776)"/>
<path d="M0 0 C10.83574324 -0.11926133 10.83574324 -0.11926133 13.6171875 2.5546875 C14.625 4.4375 14.625 4.4375 16 8 C16.66 8.66 17.32 9.32 18 10 C16.35 10.33 14.7 10.66 13 11 C13 9.68 13 8.36 13 7 C12.34 7 11.68 7 11 7 C10.67 5.68 10.34 4.36 10 3 C8.72125 3.020625 7.4425 3.04125 6.125 3.0625 C2.25 3.125 2.25 3.125 0 2 C0 1.34 0 0.68 0 0 Z " fill="#5197C1" transform="translate(818,99)"/>
<path d="M0 0 C0.99 0 1.98 0 3 0 C2.625 1.9375 2.625 1.9375 2 4 C1.01 4.495 1.01 4.495 0 5 C1.08968304 6.23428824 1.08968304 6.23428824 3.5 6.875 C4.325 7.24625 5.15 7.6175 6 8 C6.33 8.99 6.66 9.98 7 11 C3.625 11.125 3.625 11.125 0 11 C-2 9 -2 9 -2.25 6.625 C-1.99345272 3.93125358 -1.36770587 2.30800365 0 0 Z " fill="#4DA1CC" transform="translate(364,360)"/>
<path d="M0 0 C0.66 0.33 1.32 0.66 2 1 C1.52634425 5.26290179 -0.92238322 7.21548958 -4 10 C-7 12 -7 12 -9.1875 11.625 C-9.785625 11.41875 -10.38375 11.2125 -11 11 C-10.29875 10.484375 -9.5975 9.96875 -8.875 9.4375 C-5.50532643 6.58060284 -2.78843396 3.41128003 0 0 Z " fill="#4395C8" transform="translate(452,131)"/>
<path d="M0 0 C0.99 0 1.98 0 3 0 C3.33 0.99 3.66 1.98 4 3 C2.3125 6.1875 2.3125 6.1875 0 9 C-1.32 9 -2.64 9 -4 9 C-3.3543999 5.51375944 -2.07639763 2.87501211 0 0 Z " fill="#3785A9" transform="translate(1218,764)"/>
<path d="M0 0 C2 3 2 3 2 6 C1.01 6.33 0.02 6.66 -1 7 C-1.33 7.66 -1.66 8.32 -2 9 C-2.99 9 -3.98 9 -5 9 C-5.33 9.99 -5.66 10.98 -6 12 C-9.0625 13.1875 -9.0625 13.1875 -12 14 C-9.20413472 10.19762323 -6.16009105 7.33883017 -2.48828125 4.4296875 C-0.72868333 2.96118369 -0.72868333 2.96118369 0 0 Z " fill="#4191BD" transform="translate(1131,687)"/>
<path d="M0 0 C0.66 0.33 1.32 0.66 2 1 C1.67 1.99 1.34 2.98 1 4 C0.34 4 -0.32 4 -1 4 C-1.33 4.99 -1.66 5.98 -2 7 C-3.65 7 -5.3 7 -7 7 C-8.125 3.25 -8.125 3.25 -7 1 C-6.01 1 -5.02 1 -4 1 C-4 1.66 -4 2.32 -4 3 C-3.01 3 -2.02 3 -1 3 C-0.67 2.01 -0.34 1.02 0 0 Z " fill="#3E8BB9" transform="translate(1138,679)"/>
<path d="M0 0 C0.99 0.495 0.99 0.495 2 1 C4.22024286 7.66072858 3.26679704 14.4829585 1 21 C0.67 21 0.34 21 0 21 C0 14.07 0 7.14 0 0 Z " fill="#559AC0" transform="translate(1156,674)"/>
<path d="M0 0 C1.32 0.66 2.64 1.32 4 2 C4 2.99 4 3.98 4 5 C3.2575 4.9175 2.515 4.835 1.75 4.75 C-1.78157027 5.07105184 -2.76630364 6.35265617 -5 9 C-5.33 7.35 -5.66 5.7 -6 4 C-4.02 2.68 -2.04 1.36 0 0 Z " fill="#47A7CC" transform="translate(1149,661)"/>
<path d="M0 0 C0.66 0 1.32 0 2 0 C1.9278125 0.91523437 1.855625 1.83046875 1.78125 2.7734375 C1.6884375 3.96195313 1.595625 5.15046875 1.5 6.375 C1.4071875 7.55835938 1.314375 8.74171875 1.21875 9.9609375 C1.09804546 11.63786843 1 13.31873056 1 15 C0.34 15 -0.32 15 -1 15 C-3.5654594 12.4345406 -3.54046087 10.52313332 -4 7 C-3.01 6.34 -2.02 5.68 -1 5 C-0.27034634 2.43717258 -0.27034634 2.43717258 0 0 Z " fill="#4592BB" transform="translate(1040,607)"/>
<path d="M0 0 C0.33 0.99 0.66 1.98 1 3 C-1 5 -1 5 -2.9453125 5.1953125 C-4.96354167 5.13020833 -6.98177083 5.06510417 -9 5 C-8.67 3.68 -8.34 2.36 -8 1 C-5.23735711 0.40267181 -2.83967231 0 0 0 Z " fill="#5896BE" transform="translate(848,922)"/>
<path d="M0 0 C1.98422969 2.97634454 3.8493302 5.99391229 5.6875 9.0625 C6.33074219 10.12597656 6.97398437 11.18945312 7.63671875 12.28515625 C8.08660156 13.18105469 8.53648437 14.07695312 9 15 C8.67 15.66 8.34 16.32 8 17 C7.34 16.67 6.68 16.34 6 16 C6 15.01 6 14.02 6 13 C5.34 13 4.68 13 4 13 C-0.59225513 4.738041 -0.59225513 4.738041 0 0 Z " fill="#4A93C0" transform="translate(960,177)"/>
<path d="M0 0 C0.66 0 1.32 0 2 0 C2 3.96 2 7.92 2 12 C1.01 12 0.02 12 -1 12 C-1.02698189 10.37509046 -1.04638757 8.75005367 -1.0625 7.125 C-1.07410156 6.22007812 -1.08570313 5.31515625 -1.09765625 4.3828125 C-1 2 -1 2 0 0 Z " fill="#479BCB" transform="translate(700,701)"/>
<path d="M0 0 C0.33 0.66 0.66 1.32 1 2 C1.99 1.67 2.98 1.34 4 1 C4.33 1.66 4.66 2.32 5 3 C4.34 3 3.68 3 3 3 C3 3.66 3 4.32 3 5 C2.01 5.495 2.01 5.495 1 6 C1 8.64 1 11.28 1 14 C0.01 14.495 0.01 14.495 -1 15 C-1.91457003 9.43842552 -2.32086397 5.324335 0 0 Z " fill="#4997C2" transform="translate(676,472)"/>
<path d="M0 0 C0.99 0 1.98 0 3 0 C3 3.63 3 7.26 3 11 C1.68 11.33 0.36 11.66 -1 12 C-0.835 11.13375 -0.67 10.2675 -0.5 9.375 C-0.02781452 6.18774801 0.07655118 3.21514973 0 0 Z " fill="#559ABB" transform="translate(973,802)"/>
<path d="M0 0 C1.98 0.495 1.98 0.495 4 1 C4 5.62 4 10.24 4 15 C3.01 14.67 2.02 14.34 1 14 C1 10.04 1 6.08 1 2 C0.34 1.67 -0.32 1.34 -1 1 C-0.67 0.67 -0.34 0.34 0 0 Z " fill="#4C95C5" transform="translate(386,389)"/>
<path d="M0 0 C1.32 0 2.64 0 4 0 C4.23509196 4.81938524 3.45184478 8.46298506 2 13 C1.67 13 1.34 13 1 13 C0.67 8.71 0.34 4.42 0 0 Z " fill="#518CAD" transform="translate(940,833)"/>
<path d="M0 0 C0.33 0.99 0.66 1.98 1 3 C0.01 3.33 -0.98 3.66 -2 4 C-3.16666667 5.91666667 -3.16666667 5.91666667 -4 8 C-4.33 8.66 -4.66 9.32 -5 10 C-6.32 10 -7.64 10 -9 10 C-8.67 9.01 -8.34 8.02 -8 7 C-7.34 7 -6.68 7 -6 7 C-5.7525 6.401875 -5.505 5.80375 -5.25 5.1875 C-3.83629988 2.71352479 -2.34944617 1.56629745 0 0 Z " fill="#448BBF" transform="translate(720,662)"/>
<path d="M0 0 C1.32 0 2.64 0 4 0 C4.33 1.32 4.66 2.64 5 4 C4.34 4 3.68 4 3 4 C3 4.66 3 5.32 3 6 C3.66 6.33 4.32 6.66 5 7 C5 7.66 5 8.32 5 9 C5.66 9.66 6.32 10.32 7 11 C6.01 11.33 5.02 11.66 4 12 C3.32332002 10.75539217 2.65905281 9.50403104 2 8.25 C1.62875 7.55390625 1.2575 6.8578125 0.875 6.140625 C0 4 0 4 0 0 Z " fill="#5297C3" transform="translate(760,871)"/>
<path d="M0 0 C0.99 0 1.98 0 3 0 C2.54917531 1.46067199 2.08906463 2.91848032 1.625 4.375 C1.36976562 5.18710937 1.11453125 5.99921875 0.8515625 6.8359375 C0 9 0 9 -2 11 C-3.29222745 7.12331765 -2.64738884 5.37094106 -0.9375 1.75 C-0.4734375 0.88375 -0.4734375 0.88375 0 0 Z " fill="#4398C4" transform="translate(1111,801)"/>
<path d="M0 0 C0.66 0 1.32 0 2 0 C2 0.66 2 1.32 2 2 C-2.37149656 5.66641647 -6.60258708 5.31749488 -12 5 C-12.33 4.34 -12.66 3.68 -13 3 C-10.08407542 2.38147054 -7.20772644 1.89436353 -4.25 1.5 C-1.15456096 1.35168218 -1.15456096 1.35168218 0 0 Z " fill="#4797BD" transform="translate(1155,363)"/>
<path d="M0 0 C0.99 0.33 1.98 0.66 3 1 C1.92173635 2.27513763 0.83714481 3.54492569 -0.25 4.8125 C-0.85328125 5.52019531 -1.4565625 6.22789062 -2.078125 6.95703125 C-3.92370398 8.91889671 -5.79945332 10.45669625 -8 12 C-8 9 -8 9 -6.125 6.8125 C-4 5 -4 5 -2 5 C-1.34 3.35 -0.68 1.7 0 0 Z " fill="#4094BE" transform="translate(909,886)"/>
<path d="M0 0 C1.63800475 4.5500132 0.83757562 9.07850298 -1.0625 13.4375 C-1.5265625 14.2109375 -1.5265625 14.2109375 -2 15 C-2.99 15 -3.98 15 -5 15 C-4.566875 14.0409375 -4.566875 14.0409375 -4.125 13.0625 C-2.89111487 9.70359047 -2.16643898 6.39280286 -1.46484375 2.890625 C-1 1 -1 1 0 0 Z " fill="#4C8FC8" transform="translate(726,647)"/>
<path d="M0 0 C0.66 0 1.32 0 2 0 C2.33 0.66 2.66 1.32 3 2 C4.65 2 6.3 2 8 2 C8.66 3.32 9.32 4.64 10 6 C7 7 7 7 4.4375 6.375 C1.41184947 4.66822278 0.94641013 3.26941682 0 0 Z " fill="#5898C4" transform="translate(624,449)"/>
<path d="M0 0 C7.76785714 -0.66964286 7.76785714 -0.66964286 11.4375 2.3125 C14 5 14 5 15 8 C14.42378906 7.71125 13.84757812 7.4225 13.25390625 7.125 C11.82631892 6.41244341 10.39684971 5.70363441 8.96484375 5 C8.29582031 4.67 7.62679688 4.34 6.9375 4 C6.26589844 3.67 5.59429687 3.34 4.90234375 3 C3 2 3 2 0 0 Z " fill="#4A8DBD" transform="translate(407,419)"/>
<path d="M0 0 C0.66 0 1.32 0 2 0 C1.79375 0.99 1.5875 1.98 1.375 3 C0.72137698 7.37837888 1.74542211 10.79347412 3 15 C1.0625 14.1875 1.0625 14.1875 -1 13 C-2.12758089 9.61725734 -1.81750262 8.23221777 -1.0625 4.8125 C-0.86785156 3.91144531 -0.67320312 3.01039063 -0.47265625 2.08203125 C-0.23869141 1.05142578 -0.23869141 1.05142578 0 0 Z " fill="#4394B5" transform="translate(982,207)"/>
<path d="M0 0 C2.94887797 0.50842724 5.37371875 1.59306362 8 3 C7.67 3.66 7.34 4.32 7 5 C5.68 5 4.36 5 3 5 C2.01 5.66 1.02 6.32 0 7 C-0.38133299 5.0085944 -0.71325582 3.00720923 -1 1 C-0.67 0.67 -0.34 0.34 0 0 Z " fill="#4997C4" transform="translate(691,89)"/>
<path d="M0 0 C0.66 0.33 1.32 0.66 2 1 C1.67 1.99 1.34 2.98 1 4 C-0.175625 4.12375 -0.175625 4.12375 -1.375 4.25 C-4.14749104 4.72806339 -4.14749104 4.72806339 -5.3125 7.0625 C-5.539375 7.701875 -5.76625 8.34125 -6 9 C-7.32 8.34 -8.64 7.68 -10 7 C-6.7 4.69 -3.4 2.38 0 0 Z " fill="#3D98C3" transform="translate(481,88)"/>
<path d="M0 0 C0 1.65 0 3.3 0 5 C0.66 5 1.32 5 2 5 C5.22265625 10.2734375 5.22265625 10.2734375 6 12 C5.67 12.66 5.34 13.32 5 14 C1.15383526 9.91193811 -1.63589551 6.59282842 -3 1 C-1 0 -1 0 0 0 Z " fill="#4A92B9" transform="translate(726,772)"/>
<path d="M0 0 C0.33 1.32 0.66 2.64 1 4 C-1.25 5.625 -1.25 5.625 -4 7 C-6.3125 6.1875 -6.3125 6.1875 -8 5 C-7 3 -7 3 -4 1.9375 C-2.515 1.4734375 -2.515 1.4734375 -1 1 C-0.67 0.67 -0.34 0.34 0 0 Z " fill="#4896BF" transform="translate(1115,704)"/>
<path d="M0 0 C0.99 0 1.98 0 3 0 C4.4606285 2.64738916 5 3.89448334 5 7 C1.73045798 6.43628586 0.17424117 5.50037734 -2 3 C-1.34 2.01 -0.68 1.02 0 0 Z " fill="#3F88BA" transform="translate(1094,662)"/>
<path d="M0 0 C0.33 0 0.66 0 1 0 C1.09038099 5.15171623 0.84681133 9.91913204 0 15 C-2 13 -2 13 -2.25 9.75 C-2.00879145 6.1318718 -1.31162801 3.36104678 0 0 Z " fill="#6293B5" transform="translate(674,480)"/>
<path d="M0 0 C1.32 0 2.64 0 4 0 C4 1.32 4 2.64 4 4 C3.01 4 2.02 4 1 4 C1 8.62 1 13.24 1 18 C0.67 18 0.34 18 0 18 C0 12.06 0 6.12 0 0 Z " fill="#5093B9" transform="translate(1171,378)"/>
<path d="M0 0 C2.87255066 2.42195448 3.70838919 4.59742703 4.6875 8.1875 C4.93886719 9.08855469 5.19023438 9.98960937 5.44921875 10.91796875 C5.63097656 11.60503906 5.81273437 12.29210937 6 13 C4.68 12.67 3.36 12.34 2 12 C0.86235649 7.73383684 0 4.43513689 0 0 Z " fill="#4293BE" transform="translate(1028,289)"/>
<path d="M0 0 C-0.33 0.66 -0.66 1.32 -1 2 C-1.94875 2.309375 -2.8975 2.61875 -3.875 2.9375 C-6.88201835 3.95988624 -7.98918109 4.67168337 -10 7 C-10.33 7 -10.66 7 -11 7 C-11 5.35 -11 3.7 -11 2 C-9.73392393 1.46770674 -8.46189588 0.94955456 -7.1875 0.4375 C-6.47980469 0.14746094 -5.77210938 -0.14257812 -5.04296875 -0.44140625 C-3 -1 -3 -1 0 0 Z " fill="#4E96BE" transform="translate(804,104)"/>
<path d="M0 0 C1.95979427 0.28168297 3.91782378 0.57566717 5.875 0.875 C7.51082031 1.11863281 7.51082031 1.11863281 9.1796875 1.3671875 C12 2 12 2 14 4 C12.02 4.66 10.04 5.32 8 6 C7.67 5.01 7.34 4.02 7 3 C6.030625 2.87625 5.06125 2.7525 4.0625 2.625 C3.051875 2.41875 2.04125 2.2125 1 2 C0.67 1.34 0.34 0.68 0 0 Z " fill="#5597C0" transform="translate(715,95)"/>
<path d="M0 0 C-1.28813342 0.83878455 -2.58063256 1.67086783 -3.875 2.5 C-4.59429688 2.9640625 -5.31359375 3.428125 -6.0546875 3.90625 C-8 5 -8 5 -10 5 C-10 3.68 -10 2.36 -10 1 C-3.375 -1.125 -3.375 -1.125 0 0 Z " fill="#448EC2" transform="translate(954,825)"/>
<path d="M0 0 C0.99 0.33 1.98 0.66 3 1 C3.33 2.65 3.66 4.3 4 6 C5.32 6.33 6.64 6.66 8 7 C7.67 8.65 7.34 10.3 7 12 C6.34 12 5.68 12 5 12 C4.16180842 10.37750059 3.3295884 8.75191503 2.5 7.125 C2.0359375 6.22007812 1.571875 5.31515625 1.09375 4.3828125 C0 2 0 2 0 0 Z " fill="#418AB5" transform="translate(708,744)"/>
<path d="M0 0 C0.99 0.33 1.98 0.66 3 1 C0.69 3.31 -1.62 5.62 -4 8 C-4.66 7.67 -5.32 7.34 -6 7 C-6 6.01 -6 5.02 -6 4 C-3.1875 1.75 -3.1875 1.75 0 0 Z " fill="#3C85B5" transform="translate(1138,459)"/>
<path d="M0 0 C0.99 0 1.98 0 3 0 C3 3.63 3 7.26 3 11 C4.32 11.33 5.64 11.66 7 12 C5.0625 12.5625 5.0625 12.5625 3 13 C1.06729553 11.06729553 1.34625749 7.59693119 1 5 C0.68033861 3.33065717 0.35268934 1.6626783 0 0 Z " fill="#4D92B5" transform="translate(354,242)"/>
<path d="M0 0 C0.99 0 1.98 0 3 0 C3 2.64 3 5.28 3 8 C1.68 7.34 0.36 6.68 -1 6 C-0.67 4.02 -0.34 2.04 0 0 Z " fill="#419AC2" transform="translate(1083,654)"/>
<path d="M0 0 C0.99 0 1.98 0 3 0 C3.73080266 1.97746603 4.39421747 3.98072489 5 6 C4.67 6.66 4.34 7.32 4 8 C3.01 8 2.02 8 1 8 C0.67 5.36 0.34 2.72 0 0 Z " fill="#538CBE" transform="translate(1039,584)"/>
<path d="M0 0 C0.66 0.99 1.32 1.98 2 3 C1.67 3.99 1.34 4.98 1 6 C2.32 5.34 3.64 4.68 5 4 C4.67 5.32 4.34 6.64 4 8 C2.68 8.33 1.36 8.66 0 9 C-1.125 6.75 -1.125 6.75 -2 4 C-1.125 1.6875 -1.125 1.6875 0 0 Z " fill="#4BAEE2" transform="translate(671,452)"/>
<path d="M0 0 C1.32 0.99 2.64 1.98 4 3 C3.67 3.99 3.34 4.98 3 6 C0.36 5.34 -2.28 4.68 -5 4 C-3.35 2.68 -1.7 1.36 0 0 Z " fill="#478ABD" transform="translate(691,47)"/>
<path d="M0 0 C0.99 0 1.98 0 3 0 C3 1.32 3 2.64 3 4 C3.66 4.33 4.32 4.66 5 5 C2.36 5 -0.28 5 -3 5 C-3.33 4.34 -3.66 3.68 -4 3 C-3.01 3 -2.02 3 -1 3 C-0.67 2.01 -0.34 1.02 0 0 Z " fill="#529CC7" transform="translate(813,922)"/>
<path d="M0 0 C0 0.99 0 1.98 0 3 C-1.6796875 4.60546875 -1.6796875 4.60546875 -3.875 6.1875 C-4.59429688 6.71730469 -5.31359375 7.24710938 -6.0546875 7.79296875 C-8 9 -8 9 -10 9 C-9.67 8.01 -9.34 7.02 -9 6 C-8.34 6 -7.68 6 -7 6 C-6.67 5.01 -6.34 4.02 -6 3 C-3.5 1.875 -3.5 1.875 -1 1 C-0.67 0.67 -0.34 0.34 0 0 Z " fill="#4A94BB" transform="translate(897,899)"/>
<path d="M0 0 C0.33 0 0.66 0 1 0 C1 3.96 1 7.92 1 12 C0.01 11.34 -0.98 10.68 -2 10 C-2.42905061 6.05273438 -2.08466413 3.38757921 0 0 Z " fill="#5498BB" transform="translate(1150,716)"/>
<path d="M0 0 C0.66 0 1.32 0 2 0 C1.85769192 1.41702513 1.71099254 2.8336096 1.5625 4.25 C1.48128906 5.03890625 1.40007813 5.8278125 1.31640625 6.640625 C1.02365007 8.82364639 0.57935581 10.8773182 0 13 C-1.6875 10.4375 -1.6875 10.4375 -3 7 C-2.36490421 4.34847509 -1.31240999 2.43038886 0 0 Z " fill="#4394BE" transform="translate(718,611)"/>
<path d="M0 0 C0.66 0.66 1.32 1.32 2 2 C1.01 2.33 0.02 2.66 -1 3 C-1.33 4.65 -1.66 6.3 -2 8 C-1.34 8.33 -0.68 8.66 0 9 C-0.99 9.33 -1.98 9.66 -3 10 C-3.97608217 7.07175348 -4.08226668 5.04386724 -4 2 C-2.68 1.34 -1.36 0.68 0 0 Z " fill="#3D94CA" transform="translate(684,78)"/>
<path d="M0 0 C4.29 0 8.58 0 13 0 C12.01 1.485 12.01 1.485 11 3 C8.6171875 3.29296875 8.6171875 3.29296875 5.875 3.1875 C4.96492187 3.16042969 4.05484375 3.13335937 3.1171875 3.10546875 C2.41851563 3.07066406 1.71984375 3.03585938 1 3 C0.67 2.01 0.34 1.02 0 0 Z " fill="#4F8EB3" transform="translate(625,48)"/>
<path d="M0 0 C1 3 1 3 0.22265625 5.04296875 C-0.16019531 5.75066406 -0.54304688 6.45835937 -0.9375 7.1875 C-1.31777344 7.90292969 -1.69804688 8.61835937 -2.08984375 9.35546875 C-2.54037109 10.16951172 -2.54037109 10.16951172 -3 11 C-3.99 10.67 -4.98 10.34 -6 10 C-5.38003922 8.70590711 -4.75383647 7.41480327 -4.125 6.125 C-3.77695313 5.40570312 -3.42890625 4.68640625 -3.0703125 3.9453125 C-2 2 -2 2 0 0 Z " fill="#4795C4" transform="translate(1136,751)"/>
<path d="M0 0 C0.66 0.99 1.32 1.98 2 3 C-0.61514317 5.12038635 -3.19637616 7.13091744 -6 9 C-6.99 8.67 -7.98 8.34 -9 8 C-8.01 7.38125 -7.02 6.7625 -6 6.125 C-5.01 5.42375 -4.02 4.7225 -3 4 C-3 3.34 -3 2.68 -3 2 C-2.01 1.34 -1.02 0.68 0 0 Z " fill="#4D98C5" transform="translate(1037,712)"/>
<path d="M0 0 C0.99 0 1.98 0 3 0 C3 0.99 3 1.98 3 3 C4.32 3.33 5.64 3.66 7 4 C2.545 4.495 2.545 4.495 -2 5 C-1.34 3.35 -0.68 1.7 0 0 Z " fill="#5B9CCD" transform="translate(569,426)"/>
<path d="M0 0 C0.33 0 0.66 0 1 0 C1.05399736 1.45792884 1.09279177 2.91642712 1.125 4.375 C1.14820313 5.18710937 1.17140625 5.99921875 1.1953125 6.8359375 C1 9 1 9 -1 11 C-1.22174933 9.54364629 -1.42698698 8.08477044 -1.625 6.625 C-1.74101563 5.81289063 -1.85703125 5.00078125 -1.9765625 4.1640625 C-1.98429688 3.44992187 -1.99203125 2.73578125 -2 2 C-1.34 1.34 -0.68 0.68 0 0 Z " fill="#3E75D2" transform="translate(735,797)"/>
<path d="M0 0 C0.99 0.66 1.98 1.32 3 2 C1.87926138 2.83905565 0.75325453 3.67107831 -0.375 4.5 C-1.00148438 4.9640625 -1.62796875 5.428125 -2.2734375 5.90625 C-4 7 -4 7 -6 7 C-5.8125 4.625 -5.8125 4.625 -5 2 C-2.625 0.5625 -2.625 0.5625 0 0 Z " fill="#448FC0" transform="translate(985,748)"/>
<path d="M0 0 C0.99 0.33 1.98 0.66 3 1 C3.8125 2.875 3.8125 2.875 4 5 C3.01 6.485 3.01 6.485 2 8 C1.34 8 0.68 8 0 8 C0 5.36 0 2.72 0 0 Z " fill="#3E99CF" transform="translate(1046,670)"/>
<path d="M0 0 C0 0.66 0 1.32 0 2 C-2.30368736 3.06652192 -4.64018187 4.06421005 -7 5 C-7.66 4.67 -8.32 4.34 -9 4 C-9 3.01 -9 2.02 -9 1 C-2.25 0 -2.25 0 0 0 Z " fill="#3D88B3" transform="translate(549,437)"/>
<path d="M0 0 C1.32 0 2.64 0 4 0 C4.33 1.98 4.66 3.96 5 6 C3.02 5.34 1.04 4.68 -1 4 C-0.67 2.68 -0.34 1.36 0 0 Z " fill="#599DCC" transform="translate(378,378)"/>
<path d="M0 0 C0.66 0.33 1.32 0.66 2 1 C1.4140625 7.15234375 1.4140625 7.15234375 1 9 C0.01 9.495 0.01 9.495 -1 10 C-1.99 9.34 -2.98 8.68 -4 8 C-2.68 5.36 -1.36 2.72 0 0 Z " fill="#4B9AC7" transform="translate(504,64)"/>
<path d="M0 0 C0.66 0 1.32 0 2 0 C1.67 4.29 1.34 8.58 1 13 C0.67 13 0.34 13 0 13 C-0.19397476 11.02145742 -0.38001321 9.0421352 -0.5625 7.0625 C-0.66691406 5.96035156 -0.77132813 4.85820313 -0.87890625 3.72265625 C-0.91886719 2.82417969 -0.95882813 1.92570313 -1 1 C-0.67 0.67 -0.34 0.34 0 0 Z " fill="#5596BA" transform="translate(1081,726)"/>
<path d="M0 0 C0.99 0.33 1.98 0.66 3 1 C0.42215154 3.64752004 -1.91648098 5.94432065 -5 8 C-5 4 -5 4 -2.6875 1.6875 C-1.800625 1.130625 -0.91375 0.57375 0 0 Z " fill="#4697BD" transform="translate(1123,476)"/>
<path d="M0 0 C1.32 0 2.64 0 4 0 C4 0.66 4 1.32 4 2 C4.66 2.33 5.32 2.66 6 3 C5.34 3.66 4.68 4.32 4 5 C2.68 5 1.36 5 0 5 C0 3.35 0 1.7 0 0 Z " fill="#3B99C6" transform="translate(660,461)"/>
<path d="M0 0 C2.0625 0.4375 2.0625 0.4375 4 1 C3.319375 2.051875 3.319375 2.051875 2.625 3.125 C0.98313057 6.02984591 -0.03677099 8.8139348 -1 12 C-2.24834144 9.50331711 -1.95155125 8.18670849 -1.625 5.4375 C-1.53476563 4.63183594 -1.44453125 3.82617188 -1.3515625 2.99609375 C-1 1 -1 1 0 0 Z " fill="#387EB9" transform="translate(1145,445)"/>
<path d="M0 0 C0.33 1.32 0.66 2.64 1 4 C-3.455 3.01 -3.455 3.01 -8 2 C-8 1.34 -8 0.68 -8 0 C-4.71023192 -1.09658936 -3.28696233 -0.79953138 0 0 Z " fill="#4792C5" transform="translate(513,441)"/>
<path d="M0 0 C0.66 0.66 1.32 1.32 2 2 C1.69690596 6.09176955 1.12300942 9.46165096 -1 13 C-1.33 13 -1.66 13 -2 13 C-1.39174965 8.65535464 -0.73832608 4.32448133 0 0 Z " fill="#4495C3" transform="translate(1084,351)"/>
<path d="M0 0 C1.32 0 2.64 0 4 0 C3.67 1.32 3.34 2.64 3 4 C0.69 4.66 -1.62 5.32 -4 6 C-2.25 3 -2.25 3 0 0 Z " fill="#4A9DC9" transform="translate(386,194)"/>
<path d="M0 0 C-2.68841859 2.25245881 -4.64641875 3.88213958 -8 5 C-8 3.68 -8 2.36 -8 1 C-5.29120665 -0.35439668 -2.99066732 -0.06501451 0 0 Z " fill="#3D93C4" transform="translate(886,909)"/>
<path d="M0 0 C0.66 0 1.32 0 2 0 C1.53199289 4.05606165 1.12046792 7.46588679 -1 11 C-1.33 11 -1.66 11 -2 11 C-2.24042276 6.91281305 -1.42258812 3.82320557 0 0 Z " fill="#3E94C3" transform="translate(1129,764)"/>
<path d="M0 0 C0.99 0 1.98 0 3 0 C3.64757625 1.43671568 4.29299453 2.87440416 4.9375 4.3125 C5.29714844 5.11300781 5.65679688 5.91351563 6.02734375 6.73828125 C7 9 7 9 8 12 C5 11 5 11 3.8671875 9.00390625 C3.53976562 8.19824219 3.21234375 7.39257812 2.875 6.5625 C2.54242187 5.75941406 2.20984375 4.95632813 1.8671875 4.12890625 C1.58101562 3.42636719 1.29484375 2.72382813 1 2 C0.67 1.34 0.34 0.68 0 0 Z " fill="#569CC6" transform="translate(615,433)"/>
<path d="M0 0 C2.5 1.3125 2.5 1.3125 5 3 C5 3.99 5 4.98 5 6 C2.625 6.625 2.625 6.625 0 7 C-0.66 6.34 -1.32 5.68 -2 5 C-0.68 5 0.64 5 2 5 C1.34 3.35 0.68 1.7 0 0 Z " fill="#3E81AD" transform="translate(1043,307)"/>
<path d="M0 0 C1.32976123 2.65952246 0.81122428 4.04209293 0.25 6.9375 C0.09015625 7.81277344 -0.0696875 8.68804687 -0.234375 9.58984375 C-1.05683246 12.17890625 -1.93732743 13.28299509 -4 15 C-2.05882353 2.05882353 -2.05882353 2.05882353 0 0 Z " fill="#5093B5" transform="translate(360,287)"/>
<path d="M0 0 C3.125 -0.1875 3.125 -0.1875 6 0 C5.01 0.495 5.01 0.495 4 1 C4 1.66 4 2.32 4 3 C4.66 3.33 5.32 3.66 6 4 C3.36 3.67 0.72 3.34 -2 3 C-1.34 2.01 -0.68 1.02 0 0 Z " fill="#439AC9" transform="translate(796,124)"/>
<path d="M0 0 C1 2 1 2 0.4375 4.375 C-0.06525738 7.39154426 0.40328736 8.46404463 2 11 C0.68 10.67 -0.64 10.34 -2 10 C-2.6875 6.6875 -2.6875 6.6875 -3 3 C-1.5625 1.0625 -1.5625 1.0625 0 0 Z " fill="#4999C4" transform="translate(691,55)"/>
<path d="M0 0 C0.66 0 1.32 0 2 0 C2.20086443 3.71599191 2.1519437 4.77208445 0 8 C-0.99 7.67 -1.98 7.34 -3 7 C-2.01 4.69 -1.02 2.38 0 0 Z " fill="#4893C1" transform="translate(1119,786)"/>
<path d="M0 0 C1 2 1 2 0.25 4.5625 C-1 7 -1 7 -4 8 C-4.33 7.01 -4.66 6.02 -5 5 C-3.35 3.35 -1.7 1.7 0 0 Z " fill="#5595C5" transform="translate(350,311)"/>
<path d="M0 0 C3.48331435 3.01887244 4.79157144 5.56909529 6 10 C3.06799526 7.14723863 0.35684596 4.34920216 -2 1 C-1.34 0.67 -0.68 0.34 0 0 Z " fill="#3B9EC9" transform="translate(995,229)"/>
<path d="M0 0 C0.66 0.66 1.32 1.32 2 2 C0.02 4.97 -1.96 7.94 -4 11 C-4.66 10.67 -5.32 10.34 -6 10 C-4.02 6.7 -2.04 3.4 0 0 Z " fill="#4F9CC9" transform="translate(414,155)"/>
<path d="M0 0 C0 2 0 2 -1.125 3.5625 C-3.63946978 5.49026016 -5.89545967 5.65505107 -9 6 C-9 5.34 -9 4.68 -9 4 C-2.25 0 -2.25 0 0 0 Z " fill="#3F8FBA" transform="translate(586,51)"/>
<path d="M0 0 C0.99 0 1.98 0 3 0 C3.33 0.66 3.66 1.32 4 2 C7.02934491 2.65772428 7.02934491 2.65772428 10 3 C9.67 3.66 9.34 4.32 9 5 C8.34 5 7.68 5 7 5 C6.34 5.66 5.68 6.32 5 7 C4.67 6.01 4.34 5.02 4 4 C3.34 4 2.68 4 2 4 C2 3.01 2 2.02 2 1 C1.34 0.67 0.68 0.34 0 0 Z " fill="#569CCA" transform="translate(622,48)"/>
<path d="M0 0 C1.5 1.0625 1.5 1.0625 3 3 C3.1875 6.6875 3.1875 6.6875 3 10 C2.71125 9.360625 2.4225 8.72125 2.125 8.0625 C1.17176549 5.84793921 1.17176549 5.84793921 -1 5 C-0.67 3.35 -0.34 1.7 0 0 Z " fill="#3D84BC" transform="translate(1158,693)"/>
<path d="M0 0 C1.32 0.66 2.64 1.32 4 2 C1 4 1 4 -3 4 C-3 5.65 -3 7.3 -3 9 C-3.33 9 -3.66 9 -4 9 C-4 7.02 -4 5.04 -4 3 C-3.01 2.67 -2.02 2.34 -1 2 C-0.67 1.34 -0.34 0.68 0 0 Z " fill="#4189B0" transform="translate(1066,530)"/>
<path d="M0 0 C0.33 0.66 0.66 1.32 1 2 C0.67 2.66 0.34 3.32 0 4 C-2.06640625 4.4140625 -2.06640625 4.4140625 -4.5625 4.625 C-5.38878906 4.69976562 -6.21507812 4.77453125 -7.06640625 4.8515625 C-8.02353516 4.92503906 -8.02353516 4.92503906 -9 5 C-6.14693203 2.67527795 -3.45925163 1.2491742 0 0 Z " fill="#4491BA" transform="translate(1110,371)"/>
<path d="M0 0 C4 4.5 4 4.5 4 9 C2.68 8.34 1.36 7.68 0 7 C0 4.69 0 2.38 0 0 Z " fill="#398DB9" transform="translate(1034,303)"/>
<path d="M0 0 C0.66 0.66 1.32 1.32 2 2 C1.6730244 4.61580479 1.17960932 6.64078137 0 9 C-0.66 9 -1.32 9 -2 9 C-1.34 6.03 -0.68 3.06 0 0 Z " fill="#5196C4" transform="translate(362,253)"/>
<path d="M0 0 C0.33 1.32 0.66 2.64 1 4 C-0.65 4 -2.3 4 -4 4 C-4 4.66 -4 5.32 -4 6 C-4.99 5.67 -5.98 5.34 -7 5 C-4.87219421 2.65941363 -2.88437779 1.29299694 0 0 Z " fill="#419AC1" transform="translate(400,172)"/>
<path d="M0 0 C0.66 0 1.32 0 2 0 C3.625 2 3.625 2 5 4 C2.69 4.33 0.38 4.66 -2 5 C-1.34 3.35 -0.68 1.7 0 0 Z " fill="#509BC7" transform="translate(854,920)"/>
<path d="M0 0 C0.66 0 1.32 0 2 0 C2.33 0.99 2.66 1.98 3 3 C2.67 3.66 2.34 4.32 2 5 C0.35 4.67 -1.3 4.34 -3 4 C-2.67 3.34 -2.34 2.68 -2 2 C-1.34 2 -0.68 2 0 2 C0 1.34 0 0.68 0 0 Z " fill="#52A5D0" transform="translate(776,920)"/>
<path d="M0 0 C1.485 0.99 1.485 0.99 3 2 C2.34099246 5.07536854 1.46132217 7.07735566 0 10 C0 6.7 0 3.4 0 0 Z " fill="#4C94C3" transform="translate(1041,595)"/>
<path d="M0 0 C0.66 0.33 1.32 0.66 2 1 C0.35 3.64 -1.3 6.28 -3 9 C-3.33 7.68 -3.66 6.36 -4 5 C-2.0625 2.25 -2.0625 2.25 0 0 Z " fill="#4595C0" transform="translate(1091,501)"/>
<path d="M0 0 C1.2077558 3.62326739 0.54311128 4.64146369 -1 8 C-1.99 6.68 -2.98 5.36 -4 4 C-2.66666667 2.66666667 -1.33333333 1.33333333 0 0 Z " fill="#5092BB" transform="translate(1151,436)"/>
<path d="M0 0 C1.9375 0.3125 1.9375 0.3125 4 1 C4.33 1.99 4.66 2.98 5 4 C2.69 4 0.38 4 -2 4 C-1.34 3.67 -0.68 3.34 0 3 C0 2.01 0 1.02 0 0 Z " fill="#3D93B8" transform="translate(366,367)"/>
<path d="M0 0 C0.33 0.99 0.66 1.98 1 3 C0.34 3 -0.32 3 -1 3 C-1 3.66 -1 4.32 -1 5 C-3.31 4.67 -5.62 4.34 -8 4 C-5.33333333 2.66666667 -2.66666667 1.33333333 0 0 Z " fill="#509CC5" transform="translate(565,59)"/>
<path d="M0 0 C2.875 -0.1875 2.875 -0.1875 6 0 C6.66 0.99 7.32 1.98 8 3 C5.36 2.67 2.72 2.34 0 2 C0 1.34 0 0.68 0 0 Z " fill="#3D8BBC" transform="translate(675,44)"/>
<path d="M0 0 C2.875 -0.125 2.875 -0.125 6 0 C6.66 0.66 7.32 1.32 8 2 C6.02 2.33 4.04 2.66 2 3 C1.34 2.01 0.68 1.02 0 0 Z " fill="#4494BA" transform="translate(1074,829)"/>
<path d="M0 0 C2.475 0.99 2.475 0.99 5 2 C4.67 3.32 4.34 4.64 4 6 C2.62437146 4.71034824 1.29233607 3.37310707 0 2 C0 1.34 0 0.68 0 0 Z " fill="#419BCE" transform="translate(711,588)"/>
<path d="M0 0 C2.12046792 3.53411321 2.53199289 6.94393835 3 11 C1.5 10 1.5 10 0 8 C-0.27345479 5.28153765 -0.13491285 2.74322801 0 0 Z " fill="#5698C2" transform="translate(708,575)"/>
<path d="M0 0 C0.99 0 1.98 0 3 0 C2.67 2.64 2.34 5.28 2 8 C0.23537317 4.91190305 0 3.76687864 0 0 Z " fill="#589FCC" transform="translate(371,370)"/>
<path d="M0 0 C4.95 0.99 4.95 0.99 10 2 C10 2.99 10 3.98 10 5 C7.36 4.34 4.72 3.68 2 3 C2 2.34 2 1.68 2 1 C1.34 0.67 0.68 0.34 0 0 Z " fill="#4392C1" transform="translate(1049,321)"/>
<path d="M0 0 C0.33 0 0.66 0 1 0 C1 1.98 1 3.96 1 6 C-0.32 6.33 -1.64 6.66 -3 7 C-1.125 1.125 -1.125 1.125 0 0 Z " fill="#4D91B4" transform="translate(499,73)"/>
</svg>
