<?xml version="1.0" encoding="UTF-8"?>
<svg version="1.1" xmlns="http://www.w3.org/2000/svg" width="1500" height="1000">
<path d="M0 0 C0.23783203 1.61841797 0.23783203 1.61841797 0.48046875 3.26953125 C3.40347022 22.3844508 8.58433651 40.14928373 16 58 C16.24685547 58.59445923 16.49371094 59.18891846 16.74804688 59.8013916 C25.39377588 80.55514385 35.21432997 100.47257073 45.90644836 120.2407074 C49.14300137 126.23487984 52.2633914 132.283211 55.3125 138.375 C55.7259668 139.19323242 56.13943359 140.01146484 56.56542969 140.85449219 C61.87925683 151.53081599 66.07895513 162.5791408 69.875 173.875 C70.19748718 174.83045212 70.19748718 174.83045212 70.52648926 175.8052063 C73.85747981 185.73967218 76.48607772 195.71094963 78.75 205.9375 C83.70414587 228.18653085 92.89680388 246.1674671 107 264 C107.64066406 264.84433594 108.28132813 265.68867188 108.94140625 266.55859375 C112.07360399 270.67848235 115.29486406 274.3727498 119 278 C124.17862573 283.10369385 129.28732776 288.19297991 134.0078125 293.7265625 C135.63969931 295.58883333 137.29936293 297.40476819 138.9921875 299.2109375 C139.7958374 300.06981567 139.7958374 300.06981567 140.61572266 300.94604492 C141.68213084 302.08238935 142.75197068 303.21552586 143.82568359 304.3449707 C146.01787965 306.68571174 147.89191012 308.81957725 149.546875 311.58203125 C151.31889229 314.53062992 153.54924511 316.59380429 156 319 C193.75121677 365.84457556 228.74725752 431.34189704 222.18847656 493.28271484 C220.72003773 505.84835572 218.66703603 517.88479241 215 530 C214.76861328 530.77375977 214.53722656 531.54751953 214.29882812 532.34472656 C202.80717136 569.82496754 181.59475619 604.75454723 160.09887695 637.21386719 C156.75506942 642.26508178 153.54158251 647.3638989 150.44946289 652.57299805 C148.11332814 656.48465639 145.68491887 660.33680801 143.25 664.1875 C142.72760742 665.01499756 142.20521484 665.84249512 141.66699219 666.69506836 C138.59931112 671.53511477 135.46549724 676.31979449 132.25 681.0625 C127.60169876 687.9322243 123.26999365 694.99080858 118.9375 702.0625 C118.23471681 703.20782361 117.5318367 704.35308775 116.82885742 705.49829102 C113.18385633 711.43560011 113.18385633 711.43560011 109.54785156 717.37841797 C94.4866871 741.96819346 74.32894073 753.18907116 47 760 C23.02951361 765.53863511 -2.9375091 764.07099544 -27 760 C-27.69303223 759.88785156 -28.38606445 759.77570312 -29.10009766 759.66015625 C-54.04221308 755.54860937 -86.31965854 747.15370325 -104 728 C-104.804375 727.2575 -105.60875 726.515 -106.4375 725.75 C-112.01425568 719.76518902 -115.89953432 712.52781519 -119.89624023 705.43554688 C-126.10600254 694.44196118 -132.707908 684.50859652 -141 675 C-141.65484375 674.21882812 -142.3096875 673.43765625 -142.984375 672.6328125 C-146.69516689 668.25816334 -150.72363027 664.24636349 -154.8125 660.2265625 C-156.82181636 658.18136549 -158.66476747 656.07557975 -160.5 653.875 C-162.94808043 651.00757246 -165.47936973 648.75526787 -168.5 646.5 C-172.13277734 643.77998078 -174.93594632 640.94234431 -177.828125 637.46484375 C-182.91074055 631.69662358 -188.53187528 626.39986796 -194 621 C-194.7425 621.928125 -195.485 622.85625 -196.25 623.8125 C-201.204114 629.69887712 -201.204114 629.69887712 -205.5859375 630.43359375 C-213.0701039 630.44407578 -216.78187985 629.14472443 -222.2265625 623.82421875 C-226.17675768 619.80169605 -229.99623646 615.66218074 -233.828125 611.52734375 C-237.1544909 607.94788479 -240.52756763 604.43925626 -244 601 C-245.00649874 599.97261675 -246.01162455 598.94388731 -247.015625 597.9140625 C-253.02647091 591.78220524 -258.9953904 586.00695129 -266 581 C-266.69480469 580.46503906 -267.38960937 579.93007813 -268.10546875 579.37890625 C-287.12305637 565.20572994 -309.68491154 557.37523552 -333 554 C-334.89105469 553.72349609 -334.89105469 553.72349609 -336.8203125 553.44140625 C-384.83077629 547.63807063 -427.15337323 568.89228658 -463.97265625 597.29296875 C-490.88609855 617.89469467 -521.56626513 628.16043884 -553.82415771 637.13276672 C-562.07882035 639.42995442 -570.22492687 641.92544277 -578.31640625 644.74609375 C-580.27599715 645.41314431 -582.24227976 646.06693424 -584.23754883 646.61816406 C-591.4145869 648.60130244 -597.89025307 651.59726373 -604.5625 654.875 C-605.63435547 655.39191406 -606.70621094 655.90882813 -607.81054688 656.44140625 C-613.33600109 659.12471551 -618.76266693 661.90222771 -624.07177734 664.9934082 C-631.91840233 669.08958886 -639.91804298 668.82353961 -648.125 666.25 C-657.36607023 662.9371635 -664.12355702 657.61504927 -669 649 C-673.49094961 638.83529924 -671.45236205 629.15892063 -669.9375 618.5 C-664.87158665 580.96618742 -683.48220891 544.94544435 -703.13525391 514.18798828 C-711.50181149 501.01107591 -719.11511982 487.2800323 -725.921875 473.234375 C-727.47845947 470.02527342 -729.10899061 466.8617148 -730.765625 463.703125 C-741.20211513 443.63842624 -750.65049284 422.30790176 -755 400 C-755.22042969 399.02546875 -755.44085937 398.0509375 -755.66796875 397.046875 C-760.29185494 374.33087037 -755.59563253 352.64122398 -743.25 333.1875 C-738.41351436 326.33581201 -732.80635811 319.95319842 -726 315 C-725.34 315 -724.68 315 -724 315 C-724 314.34 -724 313.68 -724 313 C-721.68694155 311.12161025 -719.37539207 309.39271902 -716.9375 307.6875 C-716.18307617 307.15914551 -715.42865234 306.63079102 -714.65136719 306.08642578 C-696.04188633 293.32102756 -675.52284232 282.57646145 -654.375 274.6875 C-618.57264015 261.29478051 -589.04667054 244.21931933 -572 209 C-569.37913392 203.14640667 -567.07264069 197.16394163 -564.75 191.1875 C-564.14666502 189.65396941 -563.54250047 188.12076492 -562.9375 186.58789062 C-559.85687103 178.77541684 -559.85687103 178.77541684 -556.83227539 170.94116211 C-549.87777215 152.93617897 -536.34312533 139.19597217 -523 125.6875 C-521.62968628 124.29047852 -521.62968628 124.29047852 -520.23168945 122.86523438 C-512.00493466 114.64803788 -503.13705263 107.83751315 -492.9375 102.25 C-491.91245361 101.68442383 -491.91245361 101.68442383 -490.86669922 101.10742188 C-477.85397884 94.03361973 -468.00657258 91.74480034 -453.4375 95.375 C-428.33220287 101.40689977 -405.24847284 100.11882372 -382.6796875 87.08203125 C-375.83519731 82.69700621 -369.91067329 77.55365276 -364 72 C-362.50742705 70.63765153 -361.00799303 69.28275997 -359.5 67.9375 C-358.8709375 67.36902344 -358.241875 66.80054688 -357.59375 66.21484375 C-356 65 -356 65 -354 65 C-353.34 63.68 -352.68 62.36 -352 61 C-351.34 61 -350.68 61 -350 61 C-349.78730469 60.29488281 -349.57460938 59.58976562 -349.35546875 58.86328125 C-347.6480286 55.25649846 -345.16872575 52.88647434 -342.3125 50.1875 C-341.21676756 49.12573998 -340.12300854 48.06193953 -339.03125 46.99609375 C-338.5053125 46.48288574 -337.979375 45.96967773 -337.4375 45.44091797 C-335.62663166 43.62574389 -333.96075342 41.71313202 -332.3125 39.75 C-320.98231567 26.48539395 -304.44692801 15.8869063 -287 13.25 C-285.66800005 13.14753847 -284.33433036 13.06545772 -283 13 C-282.21367188 12.92523438 -281.42734375 12.85046875 -280.6171875 12.7734375 C-267.01850325 12.03732639 -253.12671019 16.65754827 -240.25 20.625 C-220.50998814 26.60978098 -197.95921493 29.7171812 -178.12109375 22.77734375 C-174.38130124 21.84590607 -171.73762152 22.13989673 -168 23 C-162.88043682 27.42773032 -162.27072643 33.47580685 -161.77734375 39.8984375 C-161.3263123 55.15506649 -168.23614371 64.36379595 -177.2578125 75.8828125 C-183.3442458 83.82063236 -189 93.70819997 -189 104 C-186.04989381 117.55130078 -175.88653709 125.16553944 -165.33984375 133.19140625 C-162.71899058 135.21720762 -160.17413871 137.32225724 -157.625 139.4375 C-141.63960087 152.53051338 -124.19533353 163.28507489 -106 173 C-105.36433105 173.34579102 -104.72866211 173.69158203 -104.07373047 174.04785156 C-93.81116839 179.6137081 -82.91998566 184.6953325 -71 184 C-61.46005071 179.32737178 -58.02169337 170.28095155 -54.4921875 160.87890625 C-49.10453057 144.1707009 -47.03444957 126.76068801 -44.57543945 109.4453125 C-42.85224437 97.37863249 -41.02462157 85.37935149 -38.44921875 73.4609375 C-38.25376968 72.553508 -38.05832062 71.64607849 -37.85694885 70.71115112 C-33.74362954 52.37677429 -26.65726498 33.55204222 -16 18 C-15.23233979 16.57185293 -14.48055453 15.1349793 -13.75 13.6875 C-6.25446429 0 -6.25446429 0 0 0 Z " fill="#02B2E4" transform="translate(1018,104)"/>
<path d="M0 0 C1.49080078 0.02707031 1.49080078 0.02707031 3.01171875 0.0546875 C3.77097656 0.07789063 4.53023437 0.10109375 5.3125 0.125 C-19.91602805 16.9440187 -64.81435217 10.19652446 -92.6081543 4.84106445 C-95.30840125 4.30075357 -97.9996416 3.72371727 -100.6875 3.125 C-100.6875 2.795 -100.6875 2.465 -100.6875 2.125 C-95.2425 1.63 -95.2425 1.63 -89.6875 1.125 C-89.6875 1.785 -89.6875 2.445 -89.6875 3.125 C-87.10447482 3.44022701 -84.5211184 3.75220171 -81.9375 4.0625 C-81.22722656 4.14951172 -80.51695312 4.23652344 -79.78515625 4.32617188 C-69.26378084 5.58315035 -58.84956177 6.29841481 -48.25 6.25 C-47.15324951 6.24589111 -46.05649902 6.24178223 -44.92651367 6.23754883 C-29.74433869 6.13264191 -14.01691979 -0.32980988 0 0 Z " fill="#8BE5F8" transform="translate(1076.6875,857.875)"/>
<path d="M0 0 C2.46480186 3.69720279 2.89785178 7.20191229 3.5625 11.5 C3.69180908 12.31227051 3.82111816 13.12454102 3.9543457 13.96142578 C6.21148821 28.46894568 6.44908747 42.34519714 4.6875 56.9375 C4.55432373 58.07106934 4.42114746 59.20463867 4.28393555 60.37255859 C3.34058515 68.06194199 2.12971486 75.53844582 0 83 C-0.33 83 -0.66 83 -1 83 C-1.02689216 81.52093108 -1.04634621 80.04172517 -1.0625 78.5625 C-1.07410156 77.73878906 -1.08570313 76.91507813 -1.09765625 76.06640625 C-1 74 -1 74 0 73 C4.38291627 49.4538221 2.82915785 23.618416 0 0 Z " fill="#6ADAEF" transform="translate(1235,544)"/>
<path d="M0 0 C0.84653438 3.0590674 1.24513185 4.99093136 0 8 C-0.99 8.33 -1.98 8.66 -3 9 C-3.33 9.99 -3.66 10.98 -4 12 C-4.66 12 -5.32 12 -6 12 C-5.67 13.32 -5.34 14.64 -5 16 C-16.04109589 26 -16.04109589 26 -20 26 C-20.33 26.66 -20.66 27.32 -21 28 C-22.66072849 28.68132451 -24.327767 29.34742127 -26 30 C-26.66 30.66 -27.32 31.32 -28 32 C-28.99 31.34 -29.98 30.68 -31 30 C-30.34515625 29.55011719 -29.6903125 29.10023438 -29.015625 28.63671875 C-17.45893332 20.49153634 -7.81065451 11.87678936 0 0 Z " fill="#12B2E2" transform="translate(438,328)"/>
<path d="M0 0 C1.918125 0.4021875 1.918125 0.4021875 3.875 0.8125 C5.91656875 1.20883807 7.95825113 1.60459089 10 2 C11.26328125 2.26425781 12.5265625 2.52851562 13.828125 2.80078125 C22.78267173 4.56916868 31.49338676 5.2887234 40.625 5.3125 C41.63191895 5.31781738 42.63883789 5.32313477 43.67626953 5.32861328 C48.11455622 5.28638622 52.168433 5.09468996 56.4609375 3.91796875 C59.8724017 3.03309669 60.83181963 3.00728029 64 4 C60.18212202 7.56698759 57.84861713 8.51527812 52.64453125 8.56640625 C51.39373779 8.57953857 50.14294434 8.5926709 48.85424805 8.60620117 C47.50697443 8.5940847 46.1597213 8.57946428 44.8125 8.5625 C44.13224762 8.5595694 43.45199524 8.55663879 42.75112915 8.55361938 C29.35176062 8.46786814 14.62732878 7.7583134 2 3 C1.34 2.01 0.68 1.02 0 0 Z " fill="#80E0F7" transform="translate(776,125)"/>
<path d="M0 0 C-1.12792969 -0.144375 -2.25585938 -0.28875 -3.41796875 -0.4375 C-22.50664754 -2.74580285 -40.93234597 -2.29385312 -60 0 C-60 -0.66 -60 -1.32 -60 -2 C-56.47025374 -4.35316417 -53.78150736 -4.44556634 -49.6875 -4.625 C-48.57991333 -4.67974487 -48.57991333 -4.67974487 -47.44995117 -4.7355957 C-7.44359745 -6.49979203 -7.44359745 -6.49979203 0 0 Z " fill="#6AD5F0" transform="translate(696,659)"/>
<path d="M0 0 C1.09964408 3.35716883 0.88421538 5.75499861 0.22265625 9.203125 C-0.05288086 10.67265625 -0.05288086 10.67265625 -0.33398438 12.171875 C-0.53314453 13.18765625 -0.73230469 14.2034375 -0.9375 15.25 C-1.13279297 16.28125 -1.32808594 17.3125 -1.52929688 18.375 C-2.01203382 20.91819952 -2.50252017 23.45965046 -3 26 C-3.66 26 -4.32 26 -5 26 C-5.66 30.29 -6.32 34.58 -7 39 C-6.34 39.33 -5.68 39.66 -5 40 C-5.99 42.475 -5.99 42.475 -7 45 C-7.66 45 -8.32 45 -9 45 C-9 47.97 -9 50.94 -9 54 C-9.99 54.495 -9.99 54.495 -11 55 C-10.66875234 36.20922386 -6.11589278 17.69705144 0 0 Z " fill="#4FCEEE" transform="translate(986,155)"/>
<path d="M0 0 C0.66 0.33 1.32 0.66 2 1 C-2.75 5 -2.75 5 -5 5 C-5.103125 5.763125 -5.20625 6.52625 -5.3125 7.3125 C-6.07677796 10.30013204 -6.53200415 11.21283059 -9 13 C-10.010625 13.309375 -11.02125 13.61875 -12.0625 13.9375 C-15.0748462 14.6775251 -15.0748462 14.6775251 -16.125 16.875 C-16.41375 17.57625 -16.7025 18.2775 -17 19 C-18.31129922 20.35500919 -19.64691687 21.68671343 -21 23 C-21.639375 23.86625 -22.27875 24.7325 -22.9375 25.625 C-25 28 -25 28 -27.625 29 C-30.25873476 29.80566646 -30.25873476 29.80566646 -31.3125 32.625 C-31.539375 33.40875 -31.76625 34.1925 -32 35 C-33.32 34.34 -34.64 33.68 -36 33 C-32.65117265 29.57598309 -29.2918241 26.16274007 -25.9230957 22.75830078 C-24.7829084 21.60319754 -23.64544691 20.44539609 -22.51098633 19.28466797 C-15.44585455 12.06031316 -8.44441054 5.62040948 0 0 Z " fill="#47CBE8" transform="translate(517,211)"/>
<path d="M0 0 C1.49080078 0.02707031 1.49080078 0.02707031 3.01171875 0.0546875 C3.77097656 0.07789063 4.53023437 0.10109375 5.3125 0.125 C-11.92614847 11.61743232 -38.09439213 9.28839849 -57.6875 8.125 C-57.6875 7.795 -57.6875 7.465 -57.6875 7.125 C-56.70056152 7.08012451 -55.71362305 7.03524902 -54.69677734 6.98901367 C-50.96486995 6.81618657 -47.23386691 6.62785513 -43.50292969 6.43530273 C-41.9012427 6.35470564 -40.29935012 6.27807633 -38.69726562 6.20581055 C-25.80013331 5.61994457 -11.90479023 -0.28011271 0 0 Z " fill="#62D5F2" transform="translate(1076.6875,857.875)"/>
<path d="M0 0 C0.99 0.33 1.98 0.66 3 1 C-2.19680669 10.42102666 -7.81059269 19.43624201 -13.86767578 28.32714844 C-15.9324715 31.37759696 -17.93375491 34.47033687 -19.94140625 37.55859375 C-20.29074219 38.03425781 -20.64007812 38.50992188 -21 39 C-21.33 39 -21.66 39 -22 39 C-22 37.35 -22 35.7 -22 34 C-21.34 34 -20.68 34 -20 34 C-20 33.34 -20 32.68 -20 32 C-20.66 32 -21.32 32 -22 32 C-22 31.34 -22 30.68 -22 30 C-20.35 29.67 -18.7 29.34 -17 29 C-16.81824219 28.36191406 -16.63648438 27.72382812 -16.44921875 27.06640625 C-16.19785156 26.24011719 -15.94648437 25.41382813 -15.6875 24.5625 C-15.44386719 23.73878906 -15.20023438 22.91507813 -14.94921875 22.06640625 C-14.63597656 21.38449219 -14.32273437 20.70257812 -14 20 C-13.01 19.67 -12.02 19.34 -11 19 C-11 18.01 -11 17.02 -11 16 C-9.35697047 14.31002677 -7.68528688 12.64783606 -6 11 C-3.14472628 7.48034126 -0.90623188 4.50160838 0 0 Z " fill="#37C4E9" transform="translate(1166,754)"/>
<path d="M0 0 C0.66 0.99 1.32 1.98 2 3 C1.34 3 0.68 3 0 3 C-0.33 5.97 -0.66 8.94 -1 12 C-1.66 12 -2.32 12 -3 12 C-4.78403543 22.24362167 -5.25425093 32.01541641 -5.125 42.375 C-5.11493182 43.8046811 -5.10581288 45.23436921 -5.09765625 46.6640625 C-5.0759886 50.10952479 -5.04167943 53.5547146 -5 57 C-5.33 57 -5.66 57 -6 57 C-10.40977098 37.27414947 -8.49818694 18.33996075 0 0 Z " fill="#6ED8F1" transform="translate(269,447)"/>
<path d="M0 0 C-0.33 1.65 -0.66 3.3 -1 5 C-2.32 5.33 -3.64 5.66 -5 6 C-5 6.66 -5 7.32 -5 8 C-6.98 8 -8.96 8 -11 8 C-11.33 8.99 -11.66 9.98 -12 11 C-13.65071396 12.02611949 -15.31970006 13.02308143 -17 14 C-17.61875 14.680625 -18.2375 15.36125 -18.875 16.0625 C-21.68358921 18.62327252 -24.34030266 19.13498063 -28 20 C-28.99 20.33 -29.98 20.66 -31 21 C-31 20.34 -31 19.68 -31 19 C-29.62988281 17.7824707 -29.62988281 17.7824707 -27.703125 16.42578125 C-26.99679932 15.92594727 -26.29047363 15.42611328 -25.56274414 14.91113281 C-24.79953857 14.38358398 -24.03633301 13.85603516 -23.25 13.3125 C-22.48099365 12.77592773 -21.7119873 12.23935547 -20.91967773 11.68652344 C-4.00098716 0 -4.00098716 0 0 0 Z " fill="#44CAEF" transform="translate(325,398)"/>
<path d="M0 0 C0.495 1.98 0.495 1.98 1 4 C-0.98 4.99 -0.98 4.99 -3 6 C-3 6.66 -3 7.32 -3 8 C-4.50390625 9.48046875 -4.50390625 9.48046875 -6.5625 11.1875 C-7.64724609 12.11949219 -7.64724609 12.11949219 -8.75390625 13.0703125 C-9.49511719 13.70710937 -10.23632812 14.34390625 -11 15 C-16.2894066 19.29226135 -16.2894066 19.29226135 -18.4375 25.4375 C-18.293125 26.283125 -18.14875 27.12875 -18 28 C-18.804375 28.28875 -19.60875 28.5775 -20.4375 28.875 C-23.1326468 29.73262568 -23.1326468 29.73262568 -24 32 C-24.763125 32.28875 -25.52625 32.5775 -26.3125 32.875 C-29.28908843 34.12101376 -30.86007284 35.62230316 -33 38 C-33.99 37.67 -34.98 37.34 -36 37 C-34.71372289 35.82739389 -33.42080217 34.6620717 -32.125 33.5 C-31.04605469 32.52546875 -31.04605469 32.52546875 -29.9453125 31.53125 C-28 30 -28 30 -26 30 C-25.34 28.68 -24.68 27.36 -24 26 C-23.34 26 -22.68 26 -22 26 C-21.78730469 25.29488281 -21.57460938 24.58976562 -21.35546875 23.86328125 C-19.64801473 20.25646915 -17.16863003 17.88662792 -14.3125 15.1875 C-13.22724435 14.13479063 -12.14390673 13.08010032 -11.0625 12.0234375 C-10.53785156 11.51135742 -10.01320313 10.99927734 -9.47265625 10.47167969 C-6.46980646 7.47082117 -3.74086182 4.23758759 -1 1 C-0.67 0.67 -0.34 0.34 0 0 Z " fill="#78DEF9" transform="translate(690,139)"/>
<path d="M0 0 C0.66 0 1.32 0 2 0 C2 0.66 2 1.32 2 2 C2.99 2 3.98 2 5 2 C5.4125 2.639375 5.825 3.27875 6.25 3.9375 C7.96399307 6.38836869 7.96399307 6.38836869 11.6875 6.75 C12.780625 6.8325 13.87375 6.915 15 7 C15 7.99 15 8.98 15 10 C23.25 10 31.5 10 40 10 C40 9.34 40 8.68 40 8 C41.65 8 43.3 8 45 8 C40.69101065 13.11066178 33.382955 13.73522722 27.0625 14.4375 C16.42678823 13.97698465 7.05057442 8.67268393 0 1 C0 0.67 0 0.34 0 0 Z " fill="#5BD2E9" transform="translate(353,758)"/>
<path d="M0 0 C0.99 0 1.98 0 3 0 C3.48124577 2.83299398 3.96004609 5.66636657 4.4375 8.5 C4.57220703 9.29148437 4.70691406 10.08296875 4.84570312 10.8984375 C5.68983017 15.92202284 6.40244023 20.94104741 7 26 C4.24638858 23.24638858 3.52585973 20.00154636 2.375 16.375 C2.14554688 15.66859375 1.91609375 14.9621875 1.6796875 14.234375 C1.11437579 12.49133055 0.55647456 10.74588584 0 9 C-3.34430737 9.72366315 -5.34262343 10.81715496 -8 13 C-8.66 12.67 -9.32 12.34 -10 12 C-8.70984254 10.37380152 -7.41782303 8.74908017 -6.125 7.125 C-5.04605469 5.76761719 -5.04605469 5.76761719 -3.9453125 4.3828125 C-2 2 -2 2 0 0 Z " fill="#70D8F2" transform="translate(1015,104)"/>
<path d="M0 0 C0.33 0 0.66 0 1 0 C1.87019909 13.70563569 -2.33689545 26.66320321 -8 39 C-8.54458656 40.35299505 -9.08673624 41.70697713 -9.625 43.0625 C-11.7217497 47.54191981 -11.7217497 47.54191981 -14 49 C-16.09765625 48.5625 -16.09765625 48.5625 -18 48 C-17.413396 47.38777588 -17.413396 47.38777588 -16.81494141 46.76318359 C-12.79463051 42.35975054 -10.41117139 38.20271212 -8.375 32.625 C-8.08286621 31.8505957 -7.79073242 31.07619141 -7.48974609 30.27832031 C-3.90319578 20.45558851 -1.63423351 10.31810179 0 0 Z " fill="#6DD9F3" transform="translate(970,237)"/>
<path d="M0 0 C1.8125 0.5625 1.8125 0.5625 4 2 C9.2058708 12.21893157 9.31285871 23.10301084 5.94921875 33.94140625 C4.93493975 36.14109775 3.80992716 37.4131451 2 39 C2.48919922 37.83017578 2.48919922 37.83017578 2.98828125 36.63671875 C4.29266137 31.94800104 4.25407437 27.65140518 4.1875 22.8125 C4.18685547 21.91080078 4.18621094 21.00910156 4.18554688 20.08007812 C4.16462003 14.95892214 4.16462003 14.95892214 3 10 C2.96045766 7.66700175 2.95598268 5.33291811 3 3 C2.34 3 1.68 3 1 3 C0.67 2.01 0.34 1.02 0 0 Z " fill="#5BD3EF" transform="translate(848,127)"/>
<path d="M0 0 C0.76441406 0.0721875 1.52882813 0.144375 2.31640625 0.21875 C14.9472873 1.31312237 27.38735647 1.31528499 40 0 C40 0.66 40 1.32 40 2 C33.42799704 4.3464626 26.99269484 4.43588724 20.0625 4.625 C18.32129883 4.68300781 18.32129883 4.68300781 16.54492188 4.7421875 C13.69676831 4.83595387 10.84861262 4.92165917 8 5 C8 4.01 8 3.02 8 2 C5.36 2 2.72 2 0 2 C0 1.34 0 0.68 0 0 Z " fill="#43D0EC" transform="translate(572,202)"/>
<path d="M0 0 C0.33 0 0.66 0 1 0 C1 1.65 1 3.3 1 5 C1.66 5 2.32 5 3 5 C3.35939177 13.78513226 2.90524275 22.17529303 1.625 30.875 C1.49891357 31.7609082 1.37282715 32.64681641 1.24291992 33.55957031 C1.11377197 34.38295898 0.98462402 35.20634766 0.8515625 36.0546875 C0.73635254 36.79187012 0.62114258 37.52905273 0.50244141 38.28857422 C0.33663574 38.85334473 0.17083008 39.41811523 0 40 C-0.99 40.495 -0.99 40.495 -2 41 C-1.85621657 39.02068336 -1.70985226 37.04155416 -1.5625 35.0625 C-1.48128906 33.96035156 -1.40007812 32.85820313 -1.31640625 31.72265625 C-1.08725095 29.02654518 -0.80173785 26.37001702 -0.46875 23.6875 C0.09159298 18.7616091 0.11244615 13.88985274 0.0625 8.9375 C0.05798828 8.07189453 0.05347656 7.20628906 0.04882812 6.31445312 C0.03719913 4.20960461 0.01927073 2.10479242 0 0 Z " fill="#6BD6F1" transform="translate(349,696)"/>
<path d="M0 0 C0.99 0.66 1.98 1.32 3 2 C0.7785611 6.4428778 -2.77516803 10.39659003 -7 13 C-12.01710973 13.84123743 -17.24614201 13.96275505 -21.625 11.125 C-24 9 -24 9 -25 7 C-23.02 7.66 -21.04 8.32 -19 9 C-19 9.66 -19 10.32 -19 11 C-15.37 11 -11.74 11 -8 11 C-8 10.34 -8 9.68 -8 9 C-7.236875 8.5875 -6.47375 8.175 -5.6875 7.75 C-2.40698115 5.61384819 -1.50066356 3.55420317 0 0 Z " fill="#65DAF4" transform="translate(822,721)"/>
<path d="M0 0 C0.99 0 1.98 0 3 0 C2.80664062 0.60585937 2.61328125 1.21171875 2.4140625 1.8359375 C1.57139644 4.5474867 0.77709888 7.26894578 0 10 C-0.37125 11.27423828 -0.37125 11.27423828 -0.75 12.57421875 C-2.36124899 18.98900378 -1.47294071 22.97586956 1 29 C1.35598138 30.32746606 1.69645023 31.6595723 2 33 C-0.57610957 31.45433426 -1.86922495 30.25501134 -3.25 27.5625 C-4.95830726 19.4480405 -4.76954834 12.38831475 -1 5 C-0.30859478 2.22111387 -0.30859478 2.22111387 0 0 Z " fill="#5FDAF2" transform="translate(831,188)"/>
<path d="M0 0 C1.07610988 3.22832965 0.93935312 3.9001347 0 7 C-0.185625 7.7425 -0.37125 8.485 -0.5625 9.25 C-0.706875 9.8275 -0.85125 10.405 -1 11 C-2.32 11 -3.64 11 -5 11 C-5.2475 11.7425 -5.495 12.485 -5.75 13.25 C-7.10465039 16.23023087 -8.5101541 17.89919252 -11 20 C-11.66 20 -12.32 20 -13 20 C-11.65328353 15.6905073 -9.32058981 12.58938635 -6.59765625 9.0703125 C-4.31107505 6.10726107 -2.16318807 3.05391257 0 0 Z " fill="#13B8EA" transform="translate(480,245)"/>
<path d="M0 0 C-4.39499676 2.92999784 -9.21823907 4.05047766 -14.25 5.5625 C-15.27480469 5.87896484 -16.29960937 6.19542969 -17.35546875 6.52148438 C-22.57200583 8.10255835 -27.57377009 9.44051584 -33 10 C-29.49330534 6.49330534 -24.4912047 5.48782213 -19.875 3.875 C-18.8540625 3.50246094 -17.833125 3.12992188 -16.78125 2.74609375 C-10.93258185 0.6937976 -6.19869548 -0.46081429 0 0 Z " fill="#6FDCF6" transform="translate(464,740)"/>
<path d="M0 0 C1.17941154 3.53823462 0.70960586 4.60078943 -0.4375 8.0625 C-1.61527658 11.46781924 -1.61527658 11.46781924 -2 15 C-2.66 15 -3.32 15 -4 15 C-4 16.65 -4 18.3 -4 20 C-5.65 20.66 -7.3 21.32 -9 22 C-3.80555556 5.70833333 -3.80555556 5.70833333 0 0 Z " fill="#55CEE9" transform="translate(466,265)"/>
<path d="M0 0 C3.54349407 3.54349407 4.19711559 8.77042101 5.5625 13.5 C5.87896484 14.551875 6.19542969 15.60375 6.52148438 16.6875 C8.39984964 23.13216725 9.62440918 29.29369014 10 36 C9.67 36 9.34 36 9 36 C8.67 33.36 8.34 30.72 8 28 C7.34 28 6.68 28 6 28 C4.6728739 24.0186217 4.93084087 20.14954773 5 16 C4.34 16 3.68 16 3 16 C2.814375 14.4221875 2.814375 14.4221875 2.625 12.8125 C2.0841302 9.51319419 1.24000893 7.05868869 0 4 C0 2.68 0 1.36 0 0 Z " fill="#6BDEF3" transform="translate(1086,276)"/>
<path d="M0 0 C2.27959524 2.27959524 3.1004976 4.20414358 4.3828125 7.15625 C5.04990234 8.68958984 5.04990234 8.68958984 5.73046875 10.25390625 C6.19066406 11.32511719 6.65085937 12.39632812 7.125 13.5 C7.59292969 14.57121094 8.06085938 15.64242187 8.54296875 16.74609375 C12 24.73858874 12 24.73858874 12 27 C10.1875 26.875 10.1875 26.875 8 26 C5.96096456 22.82816709 5.04795695 20.3699536 4.5625 16.625 C3.96045826 12.74517545 2.68955307 10.27050642 0.85546875 6.8671875 C-0.22925701 4.49961255 -0.32109116 2.56872928 0 0 Z " fill="#5BD2EF" transform="translate(1036,169)"/>
<path d="M0 0 C1.93064597 2.89596896 3.09100671 5.52774932 4.375 8.75 C5.84241699 12.34669565 7.33098893 15.78252226 9.3125 19.125 C11 22 11 22 11 24 C10.34 24 9.68 24 9 24 C6 20.53846154 6 20.53846154 6 18 C5.34 18 4.68 18 4 18 C4 16.35 4 14.7 4 13 C3.01 12.67 2.02 12.34 1 12 C0.67 8.04 0.34 4.08 0 0 Z " fill="#4FCFEB" transform="translate(1099,324)"/>
<path d="M0 0 C0.33 0.66 0.66 1.32 1 2 C-0.212696 4.26694931 -1.46613159 6.35861034 -2.875 8.5 C-3.27904053 9.12277832 -3.68308105 9.74555664 -4.09936523 10.38720703 C-7.89141874 16.09323307 -12.21538322 21.09096056 -17 26 C-17.66 25.67 -18.32 25.34 -19 25 C-17.625 23 -17.625 23 -16 21 C-15.34 21 -14.68 21 -14 21 C-13.773125 20.29875 -13.54625 19.5975 -13.3125 18.875 C-12.03751946 16.08218549 -10.51960085 14.11910307 -8.5078125 11.82421875 C-5.41316267 8.08017348 -2.74538282 4.00335362 0 0 Z " fill="#6EDEF9" transform="translate(1128,817)"/>
<path d="M0 0 C-1.35155282 4.42326378 -3.19890438 6.40412982 -7 9 C-7.99 9.33 -8.98 9.66 -10 10 C-11.21869929 12.50447516 -11.21869929 12.50447516 -12 15 C-13.32 14.34 -14.64 13.68 -16 13 C-13.90474642 10.82404478 -11.79972937 8.65936733 -9.6875 6.5 C-8.79514648 5.56994141 -8.79514648 5.56994141 -7.88476562 4.62109375 C-7.30791016 4.03457031 -6.73105469 3.44804687 -6.13671875 2.84375 C-5.60780029 2.29912109 -5.07888184 1.75449219 -4.53393555 1.19335938 C-3 0 -3 0 0 0 Z " fill="#33C2ED" transform="translate(497,231)"/>
<path d="M0 0 C0.33 0.99 0.66 1.98 1 3 C1.66 3.33 2.32 3.66 3 4 C4 6 5 8 6 10 C6.66 10.33 7.32 10.66 8 11 C8.625 14.0625 8.625 14.0625 9 17 C9.66 17 10.32 17 11 17 C14.22265625 22.2734375 14.22265625 22.2734375 15 24 C14.67 24.66 14.34 25.32 14 26 C9.97662211 20.94498676 6.44034618 15.68682656 3.0625 10.1875 C2.6487915 9.52935303 2.23508301 8.87120605 1.80883789 8.19311523 C0.79070341 6.50891956 -0.11404148 4.75732479 -1 3 C-0.67 2.01 -0.34 1.02 0 0 Z " fill="#4CD1EA" transform="translate(898,805)"/>
<path d="M0 0 C3.18612708 3.85634799 5.37030973 8.21975152 7.6875 12.625 C8.10322266 13.40101563 8.51894531 14.17703125 8.94726562 14.9765625 C9.33978516 15.7190625 9.73230469 16.4615625 10.13671875 17.2265625 C10.49467529 17.90283691 10.85263184 18.57911133 11.22143555 19.27587891 C12 21 12 21 12 23 C10 23 10 23 8.47265625 21.7890625 C6.75471704 19.70201699 6.17566611 17.96490853 5.4375 15.375 C4.79864318 13.01593777 4.79864318 13.01593777 4 11 C3.34 10.67 2.68 10.34 2 10 C0.55487596 6.3871899 0 3.93312158 0 0 Z " fill="#59D0EE" transform="translate(1201,464)"/>
<path d="M0 0 C0 0.66 0 1.32 0 2 C5.61 2.66 11.22 3.32 17 4 C17 4.33 17 4.66 17 5 C7.17747938 5.44723112 -1.4823267 4.21157554 -11 2 C-11 1.67 -11 1.34 -11 1 C-7.27569643 0.30710631 -3.78916254 -0.11144596 0 0 Z " fill="#57CEED" transform="translate(987,859)"/>
<path d="M0 0 C0 3 0 3 -1.4609375 4.82421875 C-2.09257812 5.43910156 -2.72421875 6.05398438 -3.375 6.6875 C-4.00148438 7.31011719 -4.62796875 7.93273437 -5.2734375 8.57421875 C-7 10 -7 10 -9 10 C-9 10.66 -9 11.32 -9 12 C-10.8984375 13.65625 -10.8984375 13.65625 -13.375 15.5 C-15.72904362 17.26366443 -17.9191905 18.9191905 -20 21 C-20.99 20.34 -21.98 19.68 -23 19 C-22.34515625 18.55011719 -21.6903125 18.10023438 -21.015625 17.63671875 C-13.43922624 12.29685579 -6.71239454 6.37267475 0 0 Z " fill="#67D5F8" transform="translate(430,339)"/>
<path d="M0 0 C2.97 0.33 5.94 0.66 9 1 C9 1.66 9 2.32 9 3 C9.85722656 3.10957031 10.71445312 3.21914063 11.59765625 3.33203125 C17.87433778 4.20241662 23.3422541 5.10533931 29 8 C25.69282542 9.10333414 23.7166235 8.88252636 20.41015625 7.85546875 C19.54326172 7.59056641 18.67636719 7.32566406 17.78320312 7.05273438 C16.88537109 6.76720703 15.98753906 6.48167969 15.0625 6.1875 C14.16853516 5.91357422 13.27457031 5.63964844 12.35351562 5.35742188 C8.16476451 4.06068155 4.03565637 2.72715982 0 1 C0 0.67 0 0.34 0 0 Z " fill="#73DEF3" transform="translate(947,851)"/>
<path d="M0 0 C-2.14187345 0.95194376 -4.28376914 1.903837 -6.42578125 2.85546875 C-8.06944493 3.58626307 -9.71271485 4.31794411 -11.35546875 5.05078125 C-12.85641486 5.71987771 -14.35900165 6.38530701 -15.86328125 7.046875 C-17.24445657 7.66297514 -18.61771557 8.29728323 -19.98046875 8.953125 C-23.49574314 10.602081 -25.31274371 11.17576285 -29 10 C-24.92503382 8.12703141 -20.83884514 6.27994888 -16.75 4.4375 C-15.59113281 3.90447266 -14.43226563 3.37144531 -13.23828125 2.82226562 C-12.12324219 2.32275391 -11.00820313 1.82324219 -9.859375 1.30859375 C-8.83295898 0.84251709 -7.80654297 0.37644043 -6.74902344 -0.10375977 C-3.90884585 -1.0297182 -2.73289602 -1.07772155 0 0 Z " fill="#70DCF5" transform="translate(369,379)"/>
<path d="M0 0 C0.66 1.32 1.32 2.64 2 4 C0 6 0 6 -3 7 C-3.33 7.66 -3.66 8.32 -4 9 C-4.763125 9.28875 -5.52625 9.5775 -6.3125 9.875 C-9.28908843 11.12101376 -10.86007284 12.62230316 -13 15 C-13.99 14.67 -14.98 14.34 -16 14 C-14.71372289 12.82739389 -13.42080217 11.6620717 -12.125 10.5 C-11.40570312 9.8503125 -10.68640625 9.200625 -9.9453125 8.53125 C-8 7 -8 7 -6 7 C-5.34 5.68 -4.68 4.36 -4 3 C-3.34 3 -2.68 3 -2 3 C-2 2.34 -2 1.68 -2 1 C-1.34 0.67 -0.68 0.34 0 0 Z " fill="#44CAEA" transform="translate(670,162)"/>
<path d="M0 0 C-4.47985378 2.36585885 -9.16745945 3.72047876 -14 5.1875 C-14.90234375 5.47302734 -15.8046875 5.75855469 -16.734375 6.05273438 C-17.60578125 6.31763672 -18.4771875 6.58253906 -19.375 6.85546875 C-20.16648437 7.09934326 -20.95796875 7.34321777 -21.7734375 7.59448242 C-24.19932074 8.03630173 -25.6821586 7.77426751 -28 7 C-9.48387097 -0.39516129 -9.48387097 -0.39516129 0 0 Z " fill="#6DDEF6" transform="translate(635,659)"/>
<path d="M0 0 C2.4375 1.3125 2.4375 1.3125 3.25 3.4375 C3.311875 4.05625 3.37375 4.675 3.4375 5.3125 C4.7575 5.3125 6.0775 5.3125 7.4375 5.3125 C7.4375 7.6225 7.4375 9.9325 7.4375 12.3125 C2.91134007 8.63417983 -0.95674999 4.90163637 -4.5625 0.3125 C-2.5625 -0.6875 -2.5625 -0.6875 0 0 Z " fill="#49D0ED" transform="translate(829.5625,724.6875)"/>
<path d="M0 0 C1.231394 2.46278801 1.07159196 4.2795055 1 7 C-0.32 7.33 -1.64 7.66 -3 8 C-3 9.32 -3 10.64 -3 12 C-4.32 12.33 -5.64 12.66 -7 13 C-7 13.66 -7 14.32 -7 15 C-7.66 15 -8.32 15 -9 15 C-7.68262072 11.41061876 -6.09204262 8.40505503 -3.9375 5.25 C-3.41027344 4.47140625 -2.88304687 3.6928125 -2.33984375 2.890625 C-1 1 -1 1 0 0 Z " fill="#42CAEE" transform="translate(279,432)"/>
<path d="M0 0 C4.09457279 1.3648576 5.71667285 4.21754285 8.1875 7.5625 C8.65091797 8.17802734 9.11433594 8.79355469 9.59179688 9.42773438 C10.73423225 10.94705565 11.86796157 12.47291627 13 14 C12.67 14.66 12.34 15.32 12 16 C4.33257403 10.03416856 4.33257403 10.03416856 3 5 C2.34 5.66 1.68 6.32 1 7 C0.67 4.69 0.34 2.38 0 0 Z " fill="#50D2ED" transform="translate(1168,418)"/>
<path d="M0 0 C0.71285156 0.144375 1.42570313 0.28875 2.16015625 0.4375 C12.74823736 2.6121529 12.74823736 2.6121529 23 0 C22.67 0.99 22.34 1.98 22 3 C21.34 3 20.68 3 20 3 C20 3.66 20 4.32 20 5 C16.68182933 6.10605689 15.46348157 5.86575731 12.125 5.125 C11.28195312 4.94195312 10.43890625 4.75890625 9.5703125 4.5703125 C8.29800781 4.28800781 8.29800781 4.28800781 7 4 C6.11054687 3.87367188 5.22109375 3.74734375 4.3046875 3.6171875 C2 3 2 3 0 0 Z " fill="#53D1EE" transform="translate(929,286)"/>
<path d="M0 0 C7.06095454 5.70885686 15.02984294 12.18381951 18 21 C16.85807217 19.85807217 15.71677615 18.71550762 14.578125 17.5703125 C13.43198823 16.42984968 12.27413185 15.30112694 11.109375 14.1796875 C10.47515625 13.56351562 9.8409375 12.94734375 9.1875 12.3125 C8.58292969 11.73113281 7.97835938 11.14976562 7.35546875 10.55078125 C6 9 6 9 6 7 C4.68 7 3.36 7 2 7 C1.34 4.69 0.68 2.38 0 0 Z " fill="#61DEF3" transform="translate(1150,397)"/>
<path d="M0 0 C1.88041992 0.07250977 1.88041992 0.07250977 3.79882812 0.14648438 C5.10916016 0.20255859 6.41949219 0.25863281 7.76953125 0.31640625 C9.10479755 0.3696486 10.44008397 0.42238885 11.77539062 0.47460938 C15.04450269 0.60442971 18.31332044 0.73940161 21.58203125 0.87890625 C22.07703125 1.86890625 22.07703125 1.86890625 22.58203125 2.87890625 C11.69203125 2.87890625 0.80203125 2.87890625 -10.41796875 2.87890625 C-8.36689753 -1.22323619 -3.99590287 -0.16272908 0 0 Z " fill="#0DAFDB" transform="translate(658.41796875,652.12109375)"/>
<path d="M0 0 C0.33 2.97 0.66 5.94 1 9 C0.34 8.01 -0.32 7.02 -1 6 C-4.35595828 6.59927826 -6.37801226 7.84622436 -9 10 C-9.66 9.67 -10.32 9.34 -11 9 C-10.07161713 7.68103535 -9.13194268 6.37001311 -8.1875 5.0625 C-7.66542969 4.33160156 -7.14335938 3.60070312 -6.60546875 2.84765625 C-4.61231944 0.55383721 -3.03219523 0 0 0 Z " fill="#38C7EC" transform="translate(1016,107)"/>
<path d="M0 0 C0.66 0.33 1.32 0.66 2 1 C1.67 2.32 1.34 3.64 1 5 C0.34 5 -0.32 5 -1 5 C-1.33 6.65 -1.66 8.3 -2 10 C-2.99 10.33 -3.98 10.66 -5 11 C-5.103125 11.928125 -5.20625 12.85625 -5.3125 13.8125 C-6.0070192 17.03254358 -6.47740939 18.02579865 -9 20 C-9.33 19.34 -9.66 18.68 -10 18 C-8.92578125 15.64453125 -8.92578125 15.64453125 -7.3125 12.8125 C-6.75949219 11.8328125 -6.20648437 10.853125 -5.63671875 9.84375 C-5.09660156 8.9053125 -4.55648437 7.966875 -4 7 C-3.57332031 6.2471875 -3.14664063 5.494375 -2.70703125 4.71875 C-1.81187843 3.14172986 -0.90718567 1.57012905 0 0 Z " fill="#4BCBEA" transform="translate(1004,118)"/>
<path d="M0 0 C1.47840936 2.81540565 2.62576034 5.60709436 3.625 8.625 C3.88539063 9.40101563 4.14578125 10.17703125 4.4140625 10.9765625 C5 13 5 13 5 15 C5.66 15 6.32 15 7 15 C7.33 16.65 7.66 18.3 8 20 C7.34 20.33 6.68 20.66 6 21 C2.33637775 14.152939 -0.38760834 7.94597089 0 0 Z " fill="#4CD2E9" transform="translate(346,737)"/>
<path d="M0 0 C2.09721098 3.14581646 3.05667086 5.8408918 4.1875 9.4375 C4.55230469 10.57058594 4.91710938 11.70367188 5.29296875 12.87109375 C5.96248932 15.8339997 6.07236414 17.22004965 5 20 C5 19.01 5 18.02 5 17 C4.34 17 3.68 17 3 17 C3 16.34 3 15.68 3 15 C2.34 15 1.68 15 1 15 C-0.03590199 9.94997778 -0.10251672 5.12583611 0 0 Z " fill="#55D2E6" transform="translate(1228,520)"/>
<path d="M0 0 C2.95973115 2.80361347 5.28556131 5.68529564 7.5625 9.0625 C9.53156433 11.97882022 11.41516938 14.60372846 14 17 C13.67 17.66 13.34 18.32 13 19 C10 17.25 10 17.25 7 15 C7 13.68 7 12.36 7 11 C6.34 11 5.68 11 5 11 C4 9.33333333 3 7.66666667 2 6 C1.34 6 0.68 6 0 6 C0 4.02 0 2.04 0 0 Z " fill="#5DD7EE" transform="translate(1117,358)"/>
<path d="M0 0 C2.58484426 0.45084493 5.1676329 0.91035263 7.75 1.375 C8.47960937 1.50132812 9.20921875 1.62765625 9.9609375 1.7578125 C13.5938428 2.41834074 16.8187005 3.07447662 20 5 C18.02 5.33 16.04 5.66 14 6 C14 5.34 14 4.68 14 4 C13.24074219 4.01160156 12.48148438 4.02320313 11.69921875 4.03515625 C10.70535156 4.04417969 9.71148438 4.05320313 8.6875 4.0625 C7.70136719 4.07410156 6.71523438 4.08570313 5.69921875 4.09765625 C3 4 3 4 0 3 C0 2.01 0 1.02 0 0 Z " fill="#55D1ED" transform="translate(551,197)"/>
<path d="M0 0 C2.375 0.3125 2.375 0.3125 5 1 C5.66 1.99 6.32 2.98 7 4 C5.5682384 4.69937202 4.12932968 5.38412718 2.6875 6.0625 C1.48673828 6.63677734 1.48673828 6.63677734 0.26171875 7.22265625 C-2 8 -2 8 -5 7 C-5 6.34 -5 5.68 -5 5 C-3.02 4.67 -1.04 4.34 1 4 C0.67 2.68 0.34 1.36 0 0 Z " fill="#37C0E7" transform="translate(600,664)"/>
<path d="M0 0 C0.33 0 0.66 0 1 0 C1.10957031 0.73605469 1.21914063 1.47210938 1.33203125 2.23046875 C2.59888975 10.02731331 3.77504252 14.42681811 10.1875 19.3125 C11.45211113 20.21709571 12.72096489 21.11591635 14 22 C13.34 22.66 12.68 23.32 12 24 C6.16837394 19.89626315 2.18996185 15.915669 0 9 C-0.22159937 5.97950423 -0.18497958 3.02133313 0 0 Z " fill="#33C1E7" transform="translate(826,204)"/>
<path d="M0 0 C0 0.33 0 0.66 0 1 C-1.65 1 -3.3 1 -5 1 C-5 1.66 -5 2.32 -5 3 C-12.0547046 7.07877462 -12.0547046 7.07877462 -16 6.75 C-16.66 6.5025 -17.32 6.255 -18 6 C-12.86697493 1.50860306 -6.77828589 -0.50837144 0 0 Z " fill="#4ECDEC" transform="translate(549,198)"/>
<path d="M0 0 C0.33 0 0.66 0 1 0 C0.55046968 8.60308032 -0.86101998 16.65932321 -3 25 C-3.33 25 -3.66 25 -4 25 C-4.02689216 23.52093108 -4.04634621 22.04172517 -4.0625 20.5625 C-4.07410156 19.73878906 -4.08570313 18.91507813 -4.09765625 18.06640625 C-4 16 -4 16 -3 15 C-2.76712992 13.31816052 -2.58735834 11.6287584 -2.4375 9.9375 C-2.35371094 9.01839844 -2.26992187 8.09929688 -2.18359375 7.15234375 C-2.12300781 6.44207031 -2.06242187 5.73179687 -2 5 C-1.34 5 -0.68 5 0 5 C0 3.35 0 1.7 0 0 Z " fill="#75E0F6" transform="translate(1238,602)"/>
<path d="M0 0 C0.99 0 1.98 0 3 0 C3.67610423 1.89248819 4.34050439 3.7891602 5 5.6875 C5.37125 6.74324219 5.7425 7.79898438 6.125 8.88671875 C6.9391857 11.78362056 7.17709796 14.01700623 7 17 C4.48757583 13.96205445 3.11771466 11.08561027 1.8125 7.375 C1.46832031 6.41335938 1.12414062 5.45171875 0.76953125 4.4609375 C0 2 0 2 0 0 Z " fill="#4AD0EB" transform="translate(271,529)"/>
<path d="M0 0 C0.66 0.33 1.32 0.66 2 1 C1.04956626 2.33897583 0.08940853 3.67105427 -0.875 5 C-1.40867187 5.7425 -1.94234375 6.485 -2.4921875 7.25 C-3.23855469 8.11625 -3.23855469 8.11625 -4 9 C-4.66 9 -5.32 9 -6 9 C-7.63676257 10.9600281 -7.63676257 10.9600281 -9 13 C-9.99 12.67 -10.98 12.34 -12 12 C-8.27653164 7.57905197 -4.70478962 3.42166518 0 0 Z " fill="#5FD1F3" transform="translate(292,419)"/>
<path d="M0 0 C2.80688169 3.3733307 4.53750866 7.05975931 6.25 11.0625 C6.53101563 11.68705078 6.81203125 12.31160156 7.1015625 12.95507812 C9.12066659 17.63800023 9.12066659 17.63800023 8 21 C7.03912864 19.10545176 6.08141031 17.20930419 5.125 15.3125 C4.59132813 14.25675781 4.05765625 13.20101563 3.5078125 12.11328125 C0 4.87046632 0 4.87046632 0 0 Z " fill="#68DAF3" transform="translate(1074,246)"/>
<path d="M0 0 C0.33 0.66 0.66 1.32 1 2 C-0.02675488 4.7301677 -1.11356512 7.34703772 -2.3125 10 C-2.63412109 10.73734375 -2.95574219 11.4746875 -3.28710938 12.234375 C-5.72829433 17.72829433 -5.72829433 17.72829433 -8 20 C-8.33 18.68 -8.66 17.36 -9 16 C-8.34 16 -7.68 16 -7 16 C-6.87625 15.484375 -6.7525 14.96875 -6.625 14.4375 C-4.27586207 5.27586207 -4.27586207 5.27586207 -2 3 C-1.34 2.01 -0.68 1.02 0 0 Z " fill="#5BD9F3" transform="translate(1226,649)"/>
<path d="M0 0 C4.49316995 4.09671378 7.97813973 8.71434062 11 14 C11 14.66 11 15.32 11 16 C9.68 15.67 8.36 15.34 7 15 C7 14.01 7 13.02 7 12 C5.68945377 10.64426252 4.35251497 9.31387169 3 8 C0 3.60714286 0 3.60714286 0 0 Z " fill="#51D5ED" transform="translate(1181,434)"/>
<path d="M0 0 C3.45595924 1.53598188 6.10076012 3.58396677 9 6 C9.54527344 6.45246094 10.09054687 6.90492188 10.65234375 7.37109375 C12.10448206 8.57722275 13.5525831 9.78820911 15 11 C14.67 11.99 14.34 12.98 14 14 C3.25740319 5.92255125 3.25740319 5.92255125 0 0 Z " fill="#51D0F0" transform="translate(841,741)"/>
<path d="M0 0 C-2.38125464 2.38125464 -4.33857567 3.00186241 -7.5 4.125 C-8.4796875 4.47820313 -9.459375 4.83140625 -10.46875 5.1953125 C-13 6 -13 6 -15 6 C-15 5.01 -15 4.02 -15 3 C-13.02 3 -11.04 3 -9 3 C-8.67 2.01 -8.34 1.02 -8 0 C-4.71023192 -1.09658936 -3.28696233 -0.79953138 0 0 Z " fill="#5AD6ED" transform="translate(513,724)"/>
<path d="M0 0 C2.64 0.33 5.28 0.66 8 1 C7.67 1.99 7.34 2.98 7 4 C8.32 4.33 9.64 4.66 11 5 C11.33 6.65 11.66 8.3 12 10 C10.55680308 9.09232898 9.12065894 8.17343894 7.6875 7.25 C6.88699219 6.73953125 6.08648438 6.2290625 5.26171875 5.703125 C2.99631139 3.99722239 1.57315833 2.34191855 0 0 Z " fill="#4BCBEC" transform="translate(751,683)"/>
<path d="M0 0 C0.66 0 1.32 0 2 0 C0.26017005 5.81261371 -1.8110489 10.83169994 -5 16 C-5.33 16 -5.66 16 -6 16 C-6 14.35 -6 12.7 -6 11 C-5.34 11 -4.68 11 -4 11 C-4 9.02 -4 7.04 -4 5 C-3.34 5 -2.68 5 -2 5 C-2 4.34 -2 3.68 -2 3 C-1.34 3 -0.68 3 0 3 C0 2.01 0 1.02 0 0 Z " fill="#55D0F1" transform="translate(1214,673)"/>
<path d="M0 0 C2.51100916 1.25550458 2.84591575 2.31919616 4.0625 4.8125 C4.57490234 5.84310547 4.57490234 5.84310547 5.09765625 6.89453125 C5.96535994 8.91917319 6.53169072 10.85157081 7 13 C7.66 13 8.32 13 9 13 C9 13.66 9 14.32 9 15 C9.66 15 10.32 15 11 15 C11 16.32 11 17.64 11 19 C8 18 8 18 6.92504883 16.44946289 C6.60560303 15.7971167 6.28615723 15.14477051 5.95703125 14.47265625 C5.60576172 13.76302734 5.25449219 13.05339844 4.89257812 12.32226562 C4.53615234 11.57654297 4.17972656 10.83082031 3.8125 10.0625 C3.44447266 9.32064453 3.07644531 8.57878906 2.69726562 7.81445312 C0 2.29481679 0 2.29481679 0 0 Z " fill="#61D5F1" transform="translate(293,577)"/>
<path d="M0 0 C2.34211663 2.89399469 3.86862171 5.67155428 5.25 9.125 C5.60578125 9.99382813 5.9615625 10.86265625 6.328125 11.7578125 C7 14 7 14 6 16 C1.79233368 12.63386694 0.76344277 9.14319339 0 4 C0 2.68 0 1.36 0 0 Z " fill="#57CFE8" transform="translate(1221,504)"/>
<path d="M0 0 C2.64 0.66 5.28 1.32 8 2 C8.33 3.32 8.66 4.64 9 6 C9.99 5.67 10.98 5.34 12 5 C12.33 6.32 12.66 7.64 13 9 C8.33138019 7.39516194 3.90741833 5.02509806 0 2 C0 1.34 0 0.68 0 0 Z " fill="#50CDED" transform="translate(919,835)"/>
<path d="M0 0 C0.33 0 0.66 0 1 0 C1.33 2.64 1.66 5.28 2 8 C1.01 8.495 1.01 8.495 0 9 C-0.12375 9.639375 -0.2475 10.27875 -0.375 10.9375 C-1 13 -1 13 -3.0390625 14.12890625 C-3.68617188 14.41636719 -4.33328125 14.70382812 -5 15 C-1.92482916 4.44191344 -1.92482916 4.44191344 0 0 Z " fill="#4FCEEC" transform="translate(454,293)"/>
<path d="M0 0 C2.10494301 0.08708038 4.20902142 0.19525693 6.3125 0.3125 C8.07013672 0.39951172 8.07013672 0.39951172 9.86328125 0.48828125 C13.0983686 1.01604768 14.08684881 1.42380724 16 4 C13.36 4.33 10.72 4.66 8 5 C8 4.01 8 3.02 8 2 C5.36 2 2.72 2 0 2 C0 1.34 0 0.68 0 0 Z " fill="#55CDE6" transform="translate(572,202)"/>
<path d="M0 0 C-2.34877419 2.50535913 -4.0911787 3.90564909 -7.55859375 4.265625 C-10.04963675 4.25149142 -12.51524028 4.17369194 -15 4 C-12.83963386 1.55023901 -11.23682048 0.50550046 -8.0625 -0.25 C-7.39347656 -0.42015625 -6.72445312 -0.5903125 -6.03515625 -0.765625 C-3.76732882 -1.02679515 -2.16439531 -0.67788667 0 0 Z " fill="#6DDBF0" transform="translate(840,129)"/>
<path d="M0 0 C0.99 0.33 1.98 0.66 3 1 C1.73513885 3.27434653 0.46345297 5.54438745 -0.8125 7.8125 C-1.16892578 8.45509766 -1.52535156 9.09769531 -1.89257812 9.75976562 C-3.6465286 12.86538435 -5.25964807 15.67459095 -8 18 C-7.44509769 14.0671299 -6.31891795 11.64273515 -4 8.4375 C-1.96828556 5.61947301 -0.62370698 3.43818475 0 0 Z " fill="#6BDDF4" transform="translate(1166,754)"/>
<path d="M0 0 C0.33 0.99 0.66 1.98 1 3 C1.66 3 2.32 3 3 3 C3.33 6.96 3.66 10.92 4 15 C3.34 15 2.68 15 2 15 C-0.10428384 9.87080814 -0.21755666 5.4389165 0 0 Z " fill="#2ABBE7" transform="translate(1232,537)"/>
<path d="M0 0 C1.79133978 -0.05391993 3.58313899 -0.09275571 5.375 -0.125 C6.37273438 -0.14820313 7.37046875 -0.17140625 8.3984375 -0.1953125 C11 0 11 0 13 2 C15.5963192 2.38015988 18.1662335 2.50595314 20.78515625 2.65625 C21.51605469 2.7696875 22.24695313 2.883125 23 3 C23.33 3.66 23.66 4.32 24 5 C22.08268082 4.88544319 20.1661325 4.75793742 18.25 4.625 C17.18265625 4.55539062 16.1153125 4.48578125 15.015625 4.4140625 C12.14021474 4.01925228 10.51416679 3.34088895 8 2 C5.33646245 1.48479018 2.70500869 1.27050087 0 1 C0 0.67 0 0.34 0 0 Z " fill="#1CB3E3" transform="translate(684,655)"/>
<path d="M0 0 C3.2515373 2.16769154 3.72213455 3.23949815 4.66015625 6.9140625 C5.26101718 10.60210544 5.15197125 14.27670445 5 18 C2.91648385 14.41272872 2.19858621 10.79305958 1.375 6.75 C1.11460937 5.48671875 0.85421875 4.2234375 0.5859375 2.921875 C0.39257812 1.95765625 0.19921875 0.9934375 0 0 Z " fill="#6FDCF2" transform="translate(344,676)"/>
<path d="M0 0 C2.475 0.495 2.475 0.495 5 1 C5 1.66 5 2.32 5 3 C2.41842632 3.53132389 -0.16461756 4.05034379 -2.75 4.5625 C-3.47960937 4.71396484 -4.20921875 4.86542969 -4.9609375 5.02148438 C-8.66557073 5.74557178 -11.39322322 6.09817231 -15 5 C-13.43840941 4.51787786 -11.87568072 4.03944127 -10.3125 3.5625 C-9.00732422 3.16224609 -9.00732422 3.16224609 -7.67578125 2.75390625 C-5.12974079 2.03655471 -2.5996577 1.482459 0 1 C0 0.67 0 0.34 0 0 Z " fill="#19B3DE" transform="translate(631,656)"/>
<path d="M0 0 C2.475 0.99 2.475 0.99 5 2 C2.25604436 4.94721162 -0.38337216 7.19168608 -4 9 C-4.66 8.67 -5.32 8.34 -6 8 C-5.01 7.34 -4.02 6.68 -3 6 C-1.93753473 4.03247172 -0.92862192 2.03412421 0 0 Z " fill="#49CEF0" transform="translate(538,706)"/>
<path d="M0 0 C-1.84258246 1.92863714 -3.34878977 2.92009594 -6.01757812 3.24755859 C-8.43427459 3.29505495 -10.83398212 3.26111304 -13.25 3.1875 C-14.09046875 3.17396484 -14.9309375 3.16042969 -15.796875 3.14648438 C-17.86485938 3.11123464 -19.93251271 3.0574302 -22 3 C-22 2.67 -22 2.34 -22 2 C-21.10796875 1.93941406 -20.2159375 1.87882813 -19.296875 1.81640625 C-17.54117187 1.69072266 -17.54117187 1.69072266 -15.75 1.5625 C-14.58984375 1.48128906 -13.4296875 1.40007813 -12.234375 1.31640625 C-8.00526971 0.90268943 -4.28340091 -0.11898336 0 0 Z " fill="#4BCDEE" transform="translate(1063,862)"/>
<path d="M0 0 C-1.76505435 0.86604534 -3.53728074 1.71748642 -5.3125 2.5625 C-6.79169922 3.27599609 -6.79169922 3.27599609 -8.30078125 4.00390625 C-11 5 -11 5 -14 4 C-13.67 3.34 -13.34 2.68 -13 2 C-11.68 2 -10.36 2 -9 2 C-9 1.34 -9 0.68 -9 0 C-3.375 -1.125 -3.375 -1.125 0 0 Z " fill="#57D0EF" transform="translate(527,719)"/>
<path d="M0 0 C0.96661363 3.12180401 0.98988909 5.52083795 0.5625 8.75 C0.46066406 9.54921875 0.35882812 10.3484375 0.25390625 11.171875 C0.12822266 12.07679688 0.12822266 12.07679688 0 13 C-0.99 13 -1.98 13 -3 13 C-4.23593891 9.29218328 -3.5678132 8.32489747 -2.0625 4.8125 C-1.68222656 3.91144531 -1.30195312 3.01039063 -0.91015625 2.08203125 C-0.60980469 1.39496094 -0.30945313 0.70789063 0 0 Z " fill="#4DCCEF" transform="translate(991,142)"/>
<path d="M0 0 C0.66 0.33 1.32 0.66 2 1 C0.85865673 3.00256574 -0.28818633 5.00199797 -1.4375 7 C-2.39462891 8.670625 -2.39462891 8.670625 -3.37109375 10.375 C-3.90863281 11.24125 -4.44617187 12.1075 -5 13 C-5.33 13 -5.66 13 -6 13 C-6 11.35 -6 9.7 -6 8 C-5.34 8 -4.68 8 -4 8 C-4 7.01 -4 6.02 -4 5 C-3.34 5 -2.68 5 -2 5 C-2 3.68 -2 2.36 -2 1 C-1.34 0.67 -0.68 0.34 0 0 Z " fill="#5CD7F1" transform="translate(1196,708)"/>
<path d="M0 0 C2.4375 0.375 2.4375 0.375 5 1 C5.33 1.66 5.66 2.32 6 3 C6.99 3.33 7.98 3.66 9 4 C9.33 5.65 9.66 7.3 10 9 C5.49115974 6.68116787 3.06093224 3.93548431 0 0 Z " fill="#5FD6EE" transform="translate(767,697)"/>
<path d="M0 0 C0.66 0.33 1.32 0.66 2 1 C2 1.99 2 2.98 2 4 C-0.375 5.0625 -0.375 5.0625 -3 6 C-3.66 5.67 -4.32 5.34 -5 5 C-7.3400417 5.28241883 -9.67504723 5.61250787 -12 6 C-9.48617788 4.32411859 -7.17052712 3.05969689 -4.4375 1.8125 C-3.65246094 1.44769531 -2.86742187 1.08289063 -2.05859375 0.70703125 C-1.37925781 0.47371094 -0.69992187 0.24039063 0 0 Z " fill="#5CD7EF" transform="translate(630,194)"/>
<path d="M0 0 C2 1 2 1 3 3 C2.67 3.66 2.34 4.32 2 5 C-0.50390625 5.6328125 -0.50390625 5.6328125 -3.5625 6.125 C-5.08037109 6.37636719 -5.08037109 6.37636719 -6.62890625 6.6328125 C-7.80259766 6.81457031 -7.80259766 6.81457031 -9 7 C-6.28672425 4.15635664 -3.30410823 2.12931419 0 0 Z " fill="#50D4EE" transform="translate(641,187)"/>
<path d="M0 0 C0.99 0 1.98 0 3 0 C3.185625 0.9590625 3.185625 0.9590625 3.375 1.9375 C3.684375 2.9584375 3.684375 2.9584375 4 4 C4.66 4.33 5.32 4.66 6 5 C6.59355614 7.64860427 6.74209269 10.29197322 7 13 C0 4.25 0 4.25 0 0 Z " fill="#4ACFED" transform="translate(322,628)"/>
<path d="M0 0 C1.4085282 5.27097662 1.4085282 5.27097662 0 8 C-3.5625 9.75 -3.5625 9.75 -7 11 C-5.22054913 6.95579349 -2.60470327 3.53921513 0 0 Z " fill="#53CBF3" transform="translate(438,328)"/>
<path d="M0 0 C3.33333333 0.66666667 6.66666667 1.33333333 10 2 C11.40185547 2.28037109 11.40185547 2.28037109 12.83203125 2.56640625 C13.54746094 2.70949219 14.26289062 2.85257812 15 3 C15 3.66 15 4.32 15 5 C12.8729989 4.74535902 10.74837785 4.47077058 8.625 4.1875 C7.44164062 4.03667969 6.25828125 3.88585937 5.0390625 3.73046875 C2 3 2 3 0 0 Z " fill="#63D3EE" transform="translate(776,125)"/>
<path d="M0 0 C0.33 0.66 0.66 1.32 1 2 C-0.43359375 4.8203125 -0.43359375 4.8203125 -2.4375 8.125 C-3.09621094 9.22070312 -3.75492188 10.31640625 -4.43359375 11.4453125 C-4.95050781 12.28835938 -5.46742187 13.13140625 -6 14 C-6.71484375 12.328125 -6.71484375 12.328125 -7 10 C-5.56640625 7.421875 -5.56640625 7.421875 -3.5625 4.75 C-2.90378906 3.85796875 -2.24507812 2.9659375 -1.56640625 2.046875 C-1.04949219 1.37140625 -0.53257813 0.6959375 0 0 Z " fill="#69DEF6" transform="translate(1205,694)"/>
<path d="M0 0 C0.33 0.99 0.66 1.98 1 3 C-0.1796875 5.26171875 -0.1796875 5.26171875 -1.875 7.6875 C-2.42929687 8.49574219 -2.98359375 9.30398437 -3.5546875 10.13671875 C-4.03164063 10.75160156 -4.50859375 11.36648437 -5 12 C-5.33 12 -5.66 12 -6 12 C-6 10.35 -6 8.7 -6 7 C-5.01 7 -4.02 7 -3 7 C-3.33 5.68 -3.66 4.36 -4 3 C-3.34 3 -2.68 3 -2 3 C-1.34 2.01 -0.68 1.02 0 0 Z " fill="#48CAEE" transform="translate(849,164)"/>
<path d="M0 0 C-3.83704776 2.55803184 -7.75712791 4.34505724 -12.4375 3.625 C-12.953125 3.41875 -13.46875 3.2125 -14 3 C-9.03006806 0.56574762 -5.65394631 -0.34615998 0 0 Z " fill="#5FD8ED" transform="translate(481,735)"/>
<path d="M0 0 C2.475 0.495 2.475 0.495 5 1 C6.125 6.625 6.125 6.625 5 10 C4.16121545 8.71186658 3.32913217 7.41936744 2.5 6.125 C2.0359375 5.40570312 1.571875 4.68640625 1.09375 3.9453125 C0 2 0 2 0 0 Z " fill="#4CD6EB" transform="translate(312,612)"/>
<path d="M0 0 C0 0.66 0 1.32 0 2 C-0.66 2 -1.32 2 -2 2 C-2 3.65 -2 5.3 -2 7 C-3.65 7.66 -5.3 8.32 -7 9 C-4.83333333 0 -4.83333333 0 0 0 Z " fill="#30C0ED" transform="translate(464,278)"/>
<path d="M0 0 C0.99 0.33 1.98 0.66 3 1 C1.7251791 3.84383123 0.54862922 6.13754018 -2 8 C-3.32 7.67 -4.64 7.34 -6 7 C-4.02 4.69 -2.04 2.38 0 0 Z " fill="#4CCFEC" transform="translate(958,278)"/>
<path d="M0 0 C0.99 0 1.98 0 3 0 C2.54803755 1.60597325 2.08817673 3.20972508 1.625 4.8125 C1.36976563 5.70582031 1.11453125 6.59914062 0.8515625 7.51953125 C0 10 0 10 -2 13 C-2.19294408 8.17639811 -1.75747614 4.50353262 0 0 Z " fill="#6EDBF5" transform="translate(831,188)"/>
<path d="M0 0 C2.97 0.495 2.97 0.495 6 1 C4.8141763 4.37503669 3.72426311 6.64722731 1 9 C1.020625 8.071875 1.04125 7.14375 1.0625 6.1875 C1.15769604 2.97713989 1.15769604 2.97713989 0 0 Z " fill="#47CDEF" transform="translate(1128,808)"/>
<path d="M0 0 C-1.93356782 0.69848264 -3.87202298 1.38344814 -5.8125 2.0625 C-6.89144531 2.44535156 -7.97039062 2.82820312 -9.08203125 3.22265625 C-12 4 -12 4 -15 3 C-9.96822606 0.24450475 -5.6529036 -1.8843012 0 0 Z " fill="#81E2F9" transform="translate(497,731)"/>
<path d="M0 0 C-3.3 2.31 -6.6 4.62 -10 7 C-10.33 6.01 -10.66 5.02 -11 4 C-10.360625 3.71125 -9.72125 3.4225 -9.0625 3.125 C-6.84793921 2.17176549 -6.84793921 2.17176549 -6 0 C-3 -1 -3 -1 0 0 Z " fill="#64D4F0" transform="translate(576,685)"/>
<path d="M0 0 C1 3 1 3 0.5 5.4375 C-1.65275866 9.11512938 -4.21609089 10.10804544 -8 12 C-6.59023295 8.96147295 -4.91129772 6.4060405 -2.875 3.75 C-2.06675781 2.69039062 -2.06675781 2.69039062 -1.2421875 1.609375 C-0.83226562 1.07828125 -0.42234375 0.5471875 0 0 Z " fill="#63D8F2" transform="translate(480,245)"/>
<path d="M0 0 C1.43861294 0.08746284 2.87597508 0.19565348 4.3125 0.3125 C5.11300781 0.37050781 5.91351562 0.42851563 6.73828125 0.48828125 C9.36272334 1.08206694 10.30820672 1.95780294 12 4 C3.42857143 3 3.42857143 3 0 2 C0 1.34 0 0.68 0 0 Z " fill="#59D0EE" transform="translate(964,856)"/>
<path d="M0 0 C2.97 0.495 2.97 0.495 6 1 C3.03716687 3.38672669 0.05729491 5.7353371 -3 8 C-3.66 7.67 -4.32 7.34 -5 7 C-4 5 -4 5 -1 4 C-0.26676204 1.98491642 -0.26676204 1.98491642 0 0 Z " fill="#54DCF5" transform="translate(581,676)"/>
<path d="M0 0 C0.99 0 1.98 0 3 0 C3 3.96 3 7.92 3 12 C0.8008587 7.60171741 0.48144941 4.81449408 0 0 Z " fill="#5FD0EE" transform="translate(264,504)"/>
<path d="M0 0 C3.09592835 3.5087188 4.74194623 6.49197399 6 11 C5.34 11 4.68 11 4 11 C0 4.5 0 4.5 0 0 Z " fill="#6DD9F2" transform="translate(1104,337)"/>
<path d="M0 0 C1.44098611 0.76429661 2.87766054 1.53672555 4.3125 2.3125 C5.11300781 2.74175781 5.91351562 3.17101562 6.73828125 3.61328125 C8.83787272 4.90059554 10.35447721 6.18406708 12 8 C8.07869079 7.21573816 4.5579965 5.81256426 1 4 C0.29296875 1.89453125 0.29296875 1.89453125 0 0 Z " fill="#67DBF7" transform="translate(879,258)"/>
<path d="M0 0 C9.59453303 6.15034169 9.59453303 6.15034169 13 10 C7.58889909 8.68021929 3.73558494 6.06714573 0 2 C0 1.34 0 0.68 0 0 Z " fill="#74E7FA" transform="translate(863,246)"/>
<path d="M0 0 C1.31611677 0.95336021 2.62778961 1.91285774 3.9375 2.875 C4.66839844 3.40867188 5.39929688 3.94234375 6.15234375 4.4921875 C8 6 8 6 9 8 C7.35 8.33 5.7 8.66 4 9 C4 7.68 4 6.36 4 5 C2.68 4.67 1.36 4.34 0 4 C0 2.68 0 1.36 0 0 Z " fill="#4CD0F4" transform="translate(840,227)"/>
<path d="M0 0 C0 3 0 3 -1 6 C-2.32 6 -3.64 6 -5 6 C-5 6.66 -5 7.32 -5 8 C-6.65 8.66 -8.3 9.32 -10 10 C-7.02911382 6.00073014 -3.87051275 3.07881696 0 0 Z " fill="#68DCF6" transform="translate(653,177)"/>
<path d="M0 0 C1.98 0.66 3.96 1.32 6 2 C6.33 4.31 6.66 6.62 7 9 C4.03595495 6.19195732 1.55500981 3.81684226 0 0 Z " fill="#5DD8F3" transform="translate(882,784)"/>
<path d="M0 0 C0.66 0.33 1.32 0.66 2 1 C-0.31 4.63 -2.62 8.26 -5 12 C-5.33 11.34 -5.66 10.68 -6 10 C-5.02616054 8.31791365 -4.02304948 6.65261839 -3 5 C-2.7215625 3.88625 -2.7215625 3.88625 -2.4375 2.75 C-2.2209375 1.88375 -2.2209375 1.88375 -2 1 C-1.34 0.67 -0.68 0.34 0 0 Z " fill="#6EE1FA" transform="translate(1178,737)"/>
<path d="M0 0 C3.465 1.485 3.465 1.485 7 3 C7 4.65 7 6.3 7 8 C5.8274869 7.04882866 4.66212985 6.08882991 3.5 5.125 C2.8503125 4.59132813 2.200625 4.05765625 1.53125 3.5078125 C1.0259375 3.01023437 0.520625 2.51265625 0 2 C0 1.34 0 0.68 0 0 Z " fill="#5AD3F1" transform="translate(779,708)"/>
<path d="M0 0 C2.97246802 2.54782974 4.41535288 5.45340883 6 9 C6 9.66 6 10.32 6 11 C5.34 11 4.68 11 4 11 C0.72962401 7.72962401 0.43143987 4.4869746 0 0 Z " fill="#67DEF8" transform="translate(1059,217)"/>
<path d="M0 0 C0.99 0.33 1.98 0.66 3 1 C-0.222107 4.8665284 -3.14922412 5.88059018 -8 7 C-5.42215154 4.35247996 -3.08351902 2.05567935 0 0 Z " fill="#57D0EE" transform="translate(704,128)"/>
<path d="M0 0 C3.36704285 -0.2295711 5.41370268 -0.33943529 8.375 1.375 C8.91125 1.91125 9.4475 2.4475 10 3 C10 3.66 10 4.32 10 5 C2.42857143 3.14285714 2.42857143 3.14285714 0 0 Z " fill="#56D1E5" transform="translate(932,844)"/>
<path d="M0 0 C0.99 0.33 1.98 0.66 3 1 C-1.455 4.465 -1.455 4.465 -6 8 C-6.66 7.67 -7.32 7.34 -8 7 C-6.74057614 5.80040625 -5.46704714 4.61560557 -4.1875 3.4375 C-3.12595703 2.44556641 -3.12595703 2.44556641 -2.04296875 1.43359375 C-1.36878906 0.96050781 -0.69460938 0.48742187 0 0 Z " fill="#71DDF5" transform="translate(551,700)"/>
<path d="M0 0 C1.65 0 3.3 0 5 0 C2.17589976 2.92869654 -0.72152181 5.58427923 -4 8 C-4.66 8 -5.32 8 -6 8 C-6 7.34 -6 6.68 -6 6 C-2.53846154 3 -2.53846154 3 0 3 C0 2.01 0 1.02 0 0 Z " fill="#5AD7F2" transform="translate(560,692)"/>
<path d="M0 0 C0.66 0 1.32 0 2 0 C2 0.66 2 1.32 2 2 C2.66 2 3.32 2 4 2 C7.22265625 7.2734375 7.22265625 7.2734375 8 9 C7.67 9.66 7.34 10.32 7 11 C6.0158875 9.73299277 5.03788503 8.4612381 4.0625 7.1875 C3.51722656 6.47980469 2.97195313 5.77210938 2.41015625 5.04296875 C1 3 1 3 0 0 Z " fill="#65DCF4" transform="translate(905,820)"/>
<path d="M0 0 C-2.87949147 2.23960447 -5.76742026 4.29864224 -9 6 C-9.66 5.67 -10.32 5.34 -11 5 C-7.95765678 0.43648516 -5.38704732 -0.29928041 0 0 Z " fill="#70DBF7" transform="translate(409,760)"/>
<path d="M0 0 C-0.33 1.65 -0.66 3.3 -1 5 C-2.32 5 -3.64 5 -5 5 C-4.625 3.0625 -4.625 3.0625 -4 1 C-2 0 -2 0 0 0 Z " fill="#31C5EA" transform="translate(325,398)"/>
<path d="M0 0 C0 3.66842255 -0.79029126 5.10451959 -3 8 C-5.6875 8.8125 -5.6875 8.8125 -8 9 C-7.04270084 7.87411986 -6.08412105 6.7493285 -5.125 5.625 C-4.59132813 4.99851563 -4.05765625 4.37203125 -3.5078125 3.7265625 C-2.38567993 2.44163349 -1.20628025 1.20628025 0 0 Z " fill="#59D7EE" transform="translate(503,222)"/>
<path d="M0 0 C1 2 1 2 0.546875 3.91015625 C0.28390625 4.62042969 0.0209375 5.33070313 -0.25 6.0625 C-0.62898437 7.13177734 -0.62898437 7.13177734 -1.015625 8.22265625 C-2 10 -2 10 -5 11 C-3.77472971 6.94718288 -2.30119506 3.55639236 0 0 Z " fill="#5FD3F0" transform="translate(999,127)"/>
<path d="M0 0 C0 3 0 3 -1.3125 4.60546875 C-1.869375 5.12753906 -2.42625 5.64960937 -3 6.1875 C-3.556875 6.71730469 -4.11375 7.24710938 -4.6875 7.79296875 C-5.120625 8.19128906 -5.55375 8.58960938 -6 9 C-6.66 8.67 -7.32 8.34 -8 8 C-6.625 6 -6.625 6 -5 4 C-4.34 4 -3.68 4 -3 4 C-2.67 3.01 -2.34 2.02 -2 1 C-1.34 0.67 -0.68 0.34 0 0 Z " fill="#85E5F5" transform="translate(1117,834)"/>
<path d="M0 0 C0.598125 0.309375 1.19625 0.61875 1.8125 0.9375 C4.08956772 2.10209704 4.08956772 2.10209704 7 3 C7 4.65 7 6.3 7 8 C4.35247996 5.42215154 2.05567935 3.08351902 0 0 Z " fill="#50D3E5" transform="translate(858,757)"/>
<path d="M0 0 C0.309375 0.639375 0.61875 1.27875 0.9375 1.9375 C1.8345163 3.93610821 1.8345163 3.93610821 3 5 C3.14115161 7.67058851 3.04247107 10.32432238 3 13 C0.89172945 9.83759418 0.66182535 8.49342531 0.375 4.8125 C0.30023438 3.91144531 0.22546875 3.01039063 0.1484375 2.08203125 C0.09945313 1.39496094 0.05046875 0.70789063 0 0 Z " fill="#7FE5F7" transform="translate(346,737)"/>
<path d="M0 0 C0 2.31 0 4.62 0 7 C-2 5.6875 -2 5.6875 -4 4 C-4 3.01 -4 2.02 -4 1 C-2 0 -2 0 0 0 Z " fill="#2DC3F3" transform="translate(837,730)"/>
<path d="M0 0 C2.79872437 2.52788007 4.45773019 4.20411134 5 8 C2.525 7.01 2.525 7.01 0 6 C0 4.02 0 2.04 0 0 Z " fill="#4DD6E9" transform="translate(1192,450)"/>
<path d="M0 0 C0.66 1.32 1.32 2.64 2 4 C0.71034824 5.37562854 -0.62689293 6.70766393 -2 8 C-2.66 8 -3.32 8 -4 8 C-2.87548273 5.0280615 -1.77706209 2.66559313 0 0 Z " fill="#5AD5F2" transform="translate(471,257)"/>
<path d="M0 0 C0 3.20395416 -0.74335022 5.09399739 -2 8 C-3.32 7.34 -4.64 6.68 -6 6 C-4.02 4.02 -2.04 2.04 0 0 Z " fill="#4DD3EC" transform="translate(487,238)"/>
<path d="M0 0 C2.64465038 3.1254959 3.84414715 6.08788267 5 10 C4.34 10 3.68 10 3 10 C3 9.34 3 8.68 3 8 C2.34 8 1.68 8 1 8 C0.67 5.36 0.34 2.72 0 0 Z " fill="#64D8F4" transform="translate(1065,228)"/>
<path d="M0 0 C1.79068573 2.6860286 2.66055791 4.6626589 3.625 7.6875 C3.88539062 8.49574219 4.14578125 9.30398437 4.4140625 10.13671875 C4.60742188 10.75160156 4.80078125 11.36648437 5 12 C2.69857565 10.21825212 1.19965609 8.83695835 0.51171875 5.953125 C0.27676898 3.9753389 0.13248542 1.98728128 0 0 Z " fill="#71E1F8" transform="translate(1031,157)"/>
<path d="M0 0 C-5.2734375 3.22265625 -5.2734375 3.22265625 -7 4 C-7.66 3.67 -8.32 3.34 -9 3 C-9 2.01 -9 1.02 -9 0 C-5.62182575 -0.84454356 -3.32534757 -1.10844919 0 0 Z " fill="#4FC8E9" transform="translate(596,673)"/>
<path d="M0 0 C0.66 0.33 1.32 0.66 2 1 C1.67 2.32 1.34 3.64 1 5 C-1.31 5.33 -3.62 5.66 -6 6 C-4 4 -2 2 0 0 Z " fill="#0EB3E0" transform="translate(286,427)"/>
<path d="M0 0 C0.33 1.32 0.66 2.64 1 4 C-0.98 4.99 -0.98 4.99 -3 6 C-3 6.66 -3 7.32 -3 8 C-3.66 7.67 -4.32 7.34 -5 7 C-3.47793991 4.37098712 -2.15634036 2.15634036 0 0 Z " fill="#4DCDF0" transform="translate(690,139)"/>
<path d="M0 0 C0 4.01474237 -1.66781767 5.81975137 -4 9 C-4.33 9 -4.66 9 -5 9 C-5 7.35 -5 5.7 -5 4 C-4.01 4 -3.02 4 -2 4 C-1.34 2.68 -0.68 1.36 0 0 Z " fill="#76E1F5" transform="translate(1149,784)"/>
<path d="M0 0 C-2 2 -2 2 -5.625 2.125 C-6.73875 2.08375 -7.8525 2.0425 -9 2 C-5.73400654 -1.26599346 -4.35266641 -1.03089468 0 0 Z " fill="#35C4E8" transform="translate(513,724)"/>
<path d="M0 0 C0 0.99 0 1.98 0 3 C-2.3125 4.5625 -2.3125 4.5625 -5 6 C-5.99 6.66 -6.98 7.32 -8 8 C-6.48291727 4.46014029 -4.24676932 0 0 0 Z " fill="#16AFE1" transform="translate(554,697)"/>
<path d="M0 0 C0 0.66 0 1.32 0 2 C-4.08443115 3.53166168 -7.79455657 2.63081652 -12 2 C-12 1.67 -12 1.34 -12 1 C-7.915021 0.45533613 -4.1274515 0 0 0 Z " fill="#6CDFF0" transform="translate(612,202)"/>
<path d="M0 0 C0.86625 0.3403125 0.86625 0.3403125 1.75 0.6875 C0.1 2.0075 -1.55 3.3275 -3.25 4.6875 C-4.24 4.0275 -5.23 3.3675 -6.25 2.6875 C-2.80384615 -0.38942308 -2.80384615 -0.38942308 0 0 Z " fill="#4CD1EF" transform="translate(413.25,355.3125)"/>
<path d="M0 0 C2.88437779 1.29299694 4.87219421 2.65941363 7 5 C4.69 4.67 2.38 4.34 0 4 C0 2.68 0 1.36 0 0 Z " fill="#66D7EF" transform="translate(856,241)"/>
<path d="M0 0 C1.32 0.33 2.64 0.66 4 1 C-0.75 5 -0.75 5 -3 5 C-3 4.34 -3 3.68 -3 3 C-2.34 3 -1.68 3 -1 3 C-0.67 2.01 -0.34 1.02 0 0 Z " fill="#40C8EC" transform="translate(836,128)"/>
</svg>
